<svg width="100%"  viewBox="0 0 129 94" fill="none" xmlns="http://www.w3.org/2000/svg">
<path d="M28.2227 93.7988H25.5371C22.8678 93.7988 20.5566 93.5547 18.6035 93.0664C16.6829 92.6107 14.9902 91.4388 13.5254 89.5508C12.0605 87.6628 11.1328 85.4167 10.7422 82.8125C10.3841 80.2083 10.1725 75.8789 10.1074 69.8242C10.1074 65.5924 9.92839 62.2396 9.57031 59.7656C9.24479 57.2917 8.34961 55.2083 6.88477 53.5156C5.41992 51.8229 3.125 50.944 0 50.8789V42.9199C3.125 42.8548 5.41992 41.9922 6.88477 40.332C8.34961 38.6393 9.24479 36.556 9.57031 34.082C9.92839 31.6081 10.1074 28.2552 10.1074 24.0234C10.1725 18.0013 10.3841 13.7044 10.7422 11.1328C11.1003 8.52865 11.9954 6.26628 13.4277 4.3457C14.8926 2.42513 16.6016 1.2207 18.5547 0.732422C20.5078 0.244141 22.8353 0 25.5371 0H28.2227V7.61719H26.709C23.3561 7.61719 21.11 8.23568 19.9707 9.47266C18.8639 10.6771 18.3105 13.4277 18.3105 17.7246C18.3105 24.8535 18.1478 30.013 17.8223 33.2031C17.5293 36.3932 16.6667 39.0788 15.2344 41.2598C13.8346 43.4082 11.4583 45.2962 8.10547 46.9238C11.4258 48.2585 13.9486 50.4232 15.6738 53.418C17.4316 56.4128 18.3105 61.6048 18.3105 68.9941C18.3105 75.7975 18.457 79.9642 18.75 81.4941C19.043 83.0241 19.5964 84.1797 20.4102 84.9609C21.2565 85.7747 23.3561 86.1816 26.709 86.1816H28.2227V93.7988Z" fill="white"/>
<path d="M100.777 0.2012L103.463 0.2012C106.132 0.2012 108.443 0.4453 110.397 0.9336C112.317 1.3893 114.01 2.5612 115.475 4.4492C116.94 6.3372 117.867 8.5833 118.258 11.1875C118.616 13.7917 118.828 18.1211 118.893 24.1758C118.893 28.4076 119.072 31.7604 119.43 34.2344C119.755 36.7083 120.65 38.7917 122.115 40.4844C123.58 42.1771 125.875 43.056 129 43.1211L129 51.0801C125.875 51.1452 123.58 52.0078 122.115 53.668C120.65 55.3607 119.755 57.444 119.43 59.918C119.072 62.3919 118.893 65.7448 118.893 69.9766C118.828 75.9987 118.616 80.2956 118.258 82.8672C117.9 85.4713 117.005 87.7337 115.572 89.6543C114.107 91.5749 112.398 92.7793 110.445 93.2676C108.492 93.7559 106.165 94 103.463 94L100.777 94L100.777 86.3828L102.291 86.3828C105.644 86.3828 107.89 85.7643 109.029 84.5273C110.136 83.3229 110.69 80.5723 110.69 76.2754C110.69 69.1465 110.852 63.987 111.178 60.7969C111.471 57.6068 112.333 54.9212 113.766 52.7402C115.165 50.5918 117.542 48.7038 120.895 47.0762C117.574 45.7415 115.051 43.5768 113.326 40.582C111.568 37.5872 110.69 32.3952 110.69 25.0059C110.69 18.2025 110.543 14.0358 110.25 12.5059C109.957 10.9759 109.404 9.8203 108.59 9.0391C107.744 8.2253 105.644 7.8184 102.291 7.8184L100.777 7.8184L100.777 0.2012Z" fill="white"/>
<path d="M64.791 12L68.502 36.9023L94.0879 16.6875L94.8691 17.5176L74.7031 43.1035L99.6055 46.8145V47.8887L74.8984 51.6973L94.8691 77.1855L94.0879 78.0156L68.6973 57.8008L64.8887 82.6055H63.7656L60.1035 57.8008L34.3711 78.0156L33.6875 77.1855L53.8047 51.502L29 47.791V46.8145L53.5605 43.0059L33.6875 17.5176L34.3711 16.6875L59.9082 36.8047L63.668 12H64.791Z" fill="white"/>
</svg>
