<?xml version="1.0" encoding="UTF-8"?>
<svg id="_레이어_1" data-name=" 레이어 1" xmlns="http://www.w3.org/2000/svg" xmlns:xlink="http://www.w3.org/1999/xlink" version="1.1" viewBox="0 0 1366 94">
  <defs>
    <style>
      .cls-1 {
        clip-path: url(#clippath);
      }

      .cls-2 {
        fill: none;
      }

      .cls-2, .cls-3, .cls-4, .cls-5, .cls-6 {
        stroke-width: 0px;
      }

      .cls-3 {
        fill: #262626;
      }

      .cls-4 {
        fill: #ff6400;
      }

      .cls-5, .cls-6 {
        fill: #fff;
      }

      .cls-6 {
        display: none;
      }
    </style>
    <clipPath id="clippath">
      <path class="cls-2" d="M637.4,47c0,25.2,20.4,45.6,45.6,45.6s45.6-20.4,45.6-45.6S708.2,1.4,683,1.4s-45.6,20.4-45.6,45.6Z"/>
    </clipPath>
  </defs>
  <path class="cls-6" d="M646.7,93.8h-2.7c-2.7,0-5-.2-6.9-.7s-3.6-1.6-5.1-3.5-2.4-4.1-2.8-6.7c-.4-2.6-.6-6.9-.6-13s-.2-7.6-.5-10.1-1.2-4.6-2.7-6.2c-1.5-1.7-3.8-2.6-6.9-2.6v-8c3.1,0,5.4-.9,6.9-2.6,1.5-1.7,2.4-3.8,2.7-6.2.4-2.5.5-5.8.5-10.1s.3-10.3.6-12.9c.4-2.6,1.3-4.9,2.7-6.8,1.5-1.9,3.2-3.1,5.1-3.6,2-.5,4.3-.7,7-.7h2.7v7.6h-1.5c-3.4,0-5.6.6-6.7,1.9-1.1,1.2-1.7,4-1.7,8.3,0,7.1-.2,12.3-.5,15.5s-1.2,5.9-2.6,8.1c-1.4,2.1-3.8,4-7.1,5.7,3.3,1.3,5.8,3.5,7.6,6.5s2.6,8.2,2.6,15.6,0,11,.4,12.5c.3,1.5.8,2.7,1.7,3.5.8.8,2.9,1.2,6.3,1.2h1.5v7.6-.3Z"/>
  <path class="cls-6" d="M719.3.2h2.7c2.7,0,5,.2,6.9.7,1.9.5,3.6,1.6,5.1,3.5s2.4,4.1,2.8,6.7c.4,2.6.6,6.9.6,13s.2,7.6.5,10.1,1.2,4.6,2.7,6.2c1.5,1.7,3.8,2.6,6.9,2.6v8c-3.1,0-5.4.9-6.9,2.6-1.5,1.7-2.4,3.8-2.7,6.2-.4,2.5-.5,5.8-.5,10.1s-.3,10.3-.6,12.9c-.4,2.6-1.3,4.9-2.7,6.8-1.5,1.9-3.2,3.1-5.1,3.6-2,.5-4.3.7-7,.7h-2.7v-7.6h1.5c3.4,0,5.6-.6,6.7-1.9,1.1-1.2,1.7-4,1.7-8.3,0-7.1.2-12.3.5-15.5s1.2-5.9,2.6-8.1c1.4-2.1,3.8-4,7.1-5.7-3.3-1.3-5.8-3.5-7.6-6.5s-2.6-8.2-2.6-15.6,0-11-.4-12.5c-.3-1.5-.8-2.7-1.7-3.5-.8-.8-2.9-1.2-6.3-1.2h-1.5V.2Z"/>
  <path class="cls-6" d="M683.3,12l3.7,24.9,25.6-20.2.8.8-20.2,25.6,24.9,3.7v1.1l-24.7,3.8,20,25.5-.8.8-25.4-20.2-3.8,24.8h-1.1l-3.7-24.8-25.7,20.2-.7-.8,20.1-25.7-24.8-3.7v-1l24.6-3.8-19.9-25.5.7-.8,25.5,20.1,3.8-24.8h1.1Z"/>
  <g>
    <path class="cls-3" d="M683,94c-25.9,0-47-21.1-47-47S657.1,0,683,0s47,21.1,47,47-21.1,47-47,47M683,1.4c-25.1,0-45.6,20.4-45.6,45.6s20.4,45.6,45.6,45.6,45.6-20.4,45.6-45.6S708.1,1.4,683,1.4"/>
    <path class="cls-4" d="M728.6,47c0,25.2-20.4,45.6-45.6,45.6s-45.6-20.4-45.6-45.6S657.8,1.4,683,1.4s45.6,20.4,45.6,45.6"/>
    <g class="cls-1">
      <g>
        <path class="cls-5" d="M683,95.1h23.5l-4.6-7.9c-3.6-5.7-3.5-16.5-3.5-16.5,9.4.2,9.9-3.5,9.9-3.5,1.1,3.5,7.7,3,7.7,3,7.9,0,8.1-10.3,8.1-10.3,0-9.3-5.9-12.8-5.9-12.8-1-24.3-12.7-29.1-12.7-29.1-11.9-6.5-19.4-2.3-21.7-.6h-1.5c-2.3-1.7-9.8-5.9-21.7.6,0,0-11.8,4.8-12.7,29.1,0,0-5.9,3.5-5.9,12.8,0,0,.2,10.3,8.1,10.3,0,0,6.7.5,7.7-3,0,0,.5,3.7,9.9,3.5,0,0,.2,10.8-3.5,16.5l-4.6,7.9h23.5,0Z"/>
        <path class="cls-3" d="M718.9,46.7c-1.1-23.7-12.2-29-13.1-29.4-3.2-1.7-13.9-6.8-22.3-.6h-.8c-8.4-6.2-19.2-1.1-22.3.6-.9.4-12.1,5.6-13.1,29.4-1.3.9-5.9,4.8-5.9,13.2s2,11,8.7,11h0c.3,0,5.6.4,7.8-2.3.2.3.6.6,1,.9,1.7,1.2,4.5,1.8,8.1,1.8,0,2.5-.4,10.8-3.4,15.4l-4.6,7.9c0,.2,0,.5,0,.7s.4.4.6.4h46.9c.3,0,.5,0,.6-.4s0-.5,0-.7l-4.6-7.9c-3-4.6-3.3-12.9-3.4-15.4,3.7,0,6.4-.6,8.1-1.8.4-.3.8-.6,1-.9,2.1,2.6,7.5,2.3,7.8,2.3h0c6.8,0,8.7-7.2,8.7-11,0-8.4-4.6-12.3-5.9-13.2M716,69.5c-1.7,0-6.3,0-7.1-2.5,0,0-.2-.5-.2-1.3,0,0-.5,3.8-10.4,4.3h-.7v.7c0,.5,0,11.1,3.5,16.9l4,6.8h-44.4l4-6.8c3.7-5.8,3.6-16.4,3.6-16.9v-.7h-.7c-9.9-.5-10.4-4.3-10.4-4.3,0,.8-.2,1.3-.2,1.3-.7,2.4-5.3,2.7-7.1,2.5-7.1,0-7.4-9.2-7.4-9.6,0-8.8,5.3-12.1,5.5-12.2l.3-.2v-.4c1-23.5,12.2-28.4,12.3-28.5h0c2.9-1.6,13.1-6.5,20.9-.7l1.2,1,1.2-1c7.8-5.8,18-.9,20.9.7h0c0,0,11.4,5,12.3,28.5v.4l.4.2c.2,0,5.5,3.4,5.5,12.2s-.3,9.6-7.4,9.6"/>
        <path class="cls-3" d="M655.2,64.2s2.7,1.5-1,3.4c0,0-7.5,3.1-9.9-3.7,0,0-2.1-6,2.5-13.3,0,0,0,0,0-.2.3-.4,1.6-1.8,2-1.4,0,0,.3.2.2.8,0,0,.2,10.5,6.1,14.3"/>
        <path class="cls-3" d="M673.1,24.8s8.3,2.5,3.3,9.4c0,0-5.1,8.8-16.5,8.8,0,0-5.3.4-5.3-7.5,0,0-1.4-13.6,6.5-13.1,0,0,6.1.2,12,2.5"/>
        <path class="cls-5" d="M671.9,31.1c0,1.4-1.2,2.6-2.6,2.6s-2.6-1.2-2.6-2.6,1.2-2.6,2.6-2.6,2.6,1.2,2.6,2.6"/>
        <path class="cls-3" d="M692.9,24.8s-8.3,2.5-3.3,9.4c0,0,5.1,8.8,16.5,8.8,0,0,5.3.4,5.3-7.5,0,0,1.4-13.6-6.5-13.1,0,0-6.1.2-12,2.5"/>
        <path class="cls-5" d="M694.1,31.1c0,1.4,1.2,2.6,2.6,2.6s2.6-1.2,2.6-2.6-1.2-2.6-2.6-2.6-2.6,1.2-2.6,2.6"/>
        <path class="cls-3" d="M682.9,37.6s2.6-.3,2.6-2c0,0,.3-1.1-2.6-1.1s-2.6,1.1-2.6,1.1c0,1.6,2.6,2,2.6,2"/>
        <path class="cls-3" d="M682.9,41.2c-5.4,0-5.6-1.8-5.6-2s.2-.4.4-.4.3.2.4.3c0,.4.9,1.3,4.5,1.3v-2.9c0-.2.2-.4.4-.4s.4.2.4.4v3.3c0,.2-.2.4-.4.4M678.1,39.2h0Z"/>
        <path class="cls-3" d="M682.9,41.2c-.2,0-.4-.2-.4-.4v-3.3c0-.2.2-.4.4-.4s.4.2.4.4v2.9c3.6,0,4.5-1,4.5-1.3s.2-.3.4-.3.4.2.4.4-.2,2-5.6,2"/>
        <path class="cls-3" d="M682.9,71.5c4.6,0,4.6-1.2,4.6-1.2,0-.4-1.3.2-1.3.2,0,0-1,.3-3.3.3s-3.2-.4-3.2-.4c0,0-1.3-.5-1.3,0,0,0,0,1.2,4.6,1.2"/>
        <path class="cls-3" d="M710.7,64.2s-2.7,1.5,1,3.4c0,0,7.5,3.1,9.9-3.7,0,0,2.1-6-2.5-13.3,0,0,0,0,0-.2-.3-.4-1.6-1.8-2-1.4,0,0-.3.2-.2.8,0,0-.2,10.5-6.1,14.3"/>
      </g>
    </g>
  </g>
</svg>