<?xml version="1.0" encoding="UTF-8"?>
<svg id="_레이어_1" data-name="레이어 1" xmlns="http://www.w3.org/2000/svg" version="1.1" viewBox="0 0 1366 94">
  <defs>
    <style>
      .cls-1 {
        fill: #fff;
        stroke-width: 0px;
      }
    </style>
  </defs>
  <path class="cls-1" d="M646.7,93.8h-2.7c-2.7,0-5-.2-6.9-.7-1.9-.5-3.6-1.6-5.1-3.5-1.5-1.9-2.4-4.1-2.8-6.7-.4-2.6-.6-6.9-.6-13,0-4.2-.2-7.6-.5-10.1-.3-2.5-1.2-4.6-2.7-6.2-1.5-1.7-3.8-2.6-6.9-2.6v-8c3.1,0,5.4-.9,6.9-2.6,1.5-1.7,2.4-3.8,2.7-6.2.4-2.5.5-5.8.5-10.1,0-6,.3-10.3.6-12.9.4-2.6,1.3-4.9,2.7-6.8,1.5-1.9,3.2-3.1,5.1-3.6,2-.5,4.3-.7,7-.7h2.7v7.6h-1.5c-3.4,0-5.6.6-6.7,1.9-1.1,1.2-1.7,4-1.7,8.3,0,7.1-.2,12.3-.5,15.5-.3,3.2-1.2,5.9-2.6,8.1-1.4,2.1-3.8,4-7.1,5.7,3.3,1.3,5.8,3.5,7.6,6.5,1.8,3,2.6,8.2,2.6,15.6s.1,11,.4,12.5c.3,1.5.8,2.7,1.7,3.5.8.8,2.9,1.2,6.3,1.2h1.5v7.6Z"/>
  <path class="cls-1" d="M719.3.2h2.7c2.7,0,5,.2,6.9.7,1.9.5,3.6,1.6,5.1,3.5,1.5,1.9,2.4,4.1,2.8,6.7.4,2.6.6,6.9.6,13,0,4.2.2,7.6.5,10.1.3,2.5,1.2,4.6,2.7,6.2,1.5,1.7,3.8,2.6,6.9,2.6v8c-3.1,0-5.4.9-6.9,2.6-1.5,1.7-2.4,3.8-2.7,6.2-.4,2.5-.5,5.8-.5,10.1,0,6-.3,10.3-.6,12.9-.4,2.6-1.3,4.9-2.7,6.8-1.5,1.9-3.2,3.1-5.1,3.6-2,.5-4.3.7-7,.7h-2.7v-7.6h1.5c3.4,0,5.6-.6,6.7-1.9,1.1-1.2,1.7-4,1.7-8.3,0-7.1.2-12.3.5-15.5.3-3.2,1.2-5.9,2.6-8.1,1.4-2.1,3.8-4,7.1-5.7-3.3-1.3-5.8-3.5-7.6-6.5-1.8-3-2.6-8.2-2.6-15.6s-.1-11-.4-12.5c-.3-1.5-.8-2.7-1.7-3.5-.8-.8-2.9-1.2-6.3-1.2h-1.5V.2Z"/>
  <path class="cls-1" d="M683.3,12l3.7,24.9,25.6-20.2.8.8-20.2,25.6,24.9,3.7v1.1l-24.7,3.8,20,25.5-.8.8-25.4-20.2-3.8,24.8h-1.1l-3.7-24.8-25.7,20.2-.7-.8,20.1-25.7-24.8-3.7v-1l24.6-3.8-19.9-25.5.7-.8,25.5,20.1,3.8-24.8h1.1Z"/>
</svg>