<?xml version="1.0" encoding="utf-8"?>
<!-- Generator: Adobe Illustrator 28.2.0, SVG Export Plug-In . SVG Version: 6.00 Build 0)  -->
<svg version="1.1" id="레이어_1" xmlns="http://www.w3.org/2000/svg" xmlns:xlink="http://www.w3.org/1999/xlink" x="0px"
	 y="0px" viewBox="0 0 258.3 62.7" style="enable-background:new 0 0 258.3 62.7;" xml:space="preserve">
<style type="text/css">
	.st0{fill:#FFFFFF;}
</style>
<g>
	<path class="st0" d="M88.1,16c-10,0-17.6,8.7-20.4,22.6C64.6,53.9,69.2,62.7,81,62.7c12.5,0,18.2-10.7,20.6-22.4
		C104.3,26.6,101.2,16,88.1,16z M91.2,39.5c-2,9.2-5.1,14.7-9.3,14.7c-4.5,0-5.9-4.1-3.9-14.3c1.4-7.1,4.6-15.2,9.5-15.2
		C93.4,24.7,93,31.4,91.2,39.5z"/>
	<path class="st0" d="M50,26.9H30.9l3-14.7h20.3L56.3,3H32.8c-4.2,0-7.9,3-8.8,7.1l-8.4,39.6C13.8,56.8,7.4,61.9,0,61.9h10.3
		c7.7,0,14.3-5.4,15.9-12.9l1.2-5.5l0,0l1.6-7.5H48L50,26.9z"/>
	<path class="st0" d="M71.3,0H60.8l-8,37.7c0,0,0,0,0,0l-2.4,11.2c-1.6,7.5-8.1,12.9-15.7,12.9h10.3c7.7,0,14.3-5.4,15.9-12.9
		l1.3-5.4l0,0L71.3,0z"/>
	<path class="st0" d="M190,56.2l-0.2-0.7l0-0.2c0,0,0,0.1,0,0.2L183.2,29c-0.3-1.2,0-2.5,0.8-3.5L203.2,3h-12.5
		c-6.3,8.1-15.9,20.2-20.8,26.5L175.7,3h-10.4l-2.9,13.8h-2.7l0,0h-4.2c-4,0-7.5,2.5-9,6.2c-3.5,9.1-5.7,15.2-7.2,19.6
		c-0.7,1.6-2.1,1.3-2-0.4l0.2-9.2l0,0.1c0.1-3.8,0.2-8.1,0.2-12.6c0-2-1.6-3.7-3.6-3.7l-3.3,0c-1.5,0-2.8,0.9-3.4,2.3
		c-4.3,10.6-7.4,18.2-9.5,23.6c-0.7,1.5-2.4,1.2-2.3-0.5l0-0.2c0.2-4.9,0.5-11.4,0.8-19.7c0.1-3-2.3-5.5-5.3-5.5l-3.1,0c0,0,0,0,0,0
		h-6.6c0,0,4.7,0.5,4.7,3.5l0,0l0.4,35.7c0,3.3,2.8,6,6.1,6l0.2,0c2.4,0,4.7-1.5,5.6-3.7c5-11.7,9.1-20.4,11-26.2h0.1
		c-0.4,5.4-0.2,13.1-0.4,23.6c-0.1,3.4,2.7,6.2,6.1,6.2c2.4,0,4.6-1.4,5.6-3.6l17.3-38.2c1.3-2.6,3.3-3.2,4.2-3.4L152.7,62h10.4
		l3.3-15.2c0.5-2.3,1.6-4.4,3.1-6.1l5-5.5l5.1,22.5c0.6,2.6,2.9,4.4,5.5,4.4h6.3l0,0l5.9,0C192.2,61,190.5,57.8,190,56.2z"/>
	<path class="st0" d="M216.4,16c-10.7,0-14.6,5.9-16.2,13h9.8c0.8-3.2,2.2-5.4,5.5-5.4c4.7,0,4.7,3.6,4,7l-0.1,0.5
		c-0.4,1.6-1.7,2.8-3.4,3c-2.2,0.2-4.2,0.4-6.3,0.8c-7.8,1.4-13.8,4.3-15.6,12.9c-1.4,7.1,0.7,14.8,9.8,14.8c4.8,0,7.5-1.5,9.7-4.5
		l0,0c-0.4,2,1.1,3.8,3.1,3.8h6.4c0,0,0,0,0,0h4c-3-0.9-2.7-6.2-2.6-7.1c0.3-1.3,0.6-2.7,0.8-4l4.1-19.2
		C231.8,20.9,226.7,16,216.4,16z M216.7,44.3c-1.3,6.7-3.7,10.1-8.2,10.1c-3.8,0-4.7-2.9-3.9-6.3c0.8-3.5,3.4-5,6.9-5.9
		c1.7-0.4,3.7-0.6,5.8-0.8L216.7,44.3z"/>
	<path class="st0" d="M249.2,54.5L249.2,54.5c-0.9,0.2-2.4,0.1-3.6,0.1c-3.2,0-3.4-1.5-2.9-4.2l5.6-25.4h6.7l1.7-8.4h-6.6l2.5-11.2
		h-10.4l-2.5,11.2h-5.7l-1.8,8.4h5.7L232,51.6c-1.7,8.2,1.5,11,8.7,11c1.7,0,4.7,0,6.8-0.7c8.1-1.2,10.8-12.6,10.8-12.6
		C255.5,54.1,249.2,54.5,249.2,54.5z"/>
</g>
</svg>
