<svg  viewBox="0 0 101 19" fill="none" xmlns="http://www.w3.org/2000/svg">
<path d="M91.988 18.4285V16.5527H92.7592C93.2872 16.5527 93.6832 16.5179 93.9472 16.4484C94.2251 16.3929 94.4127 16.2678 94.51 16.0733C94.6211 15.8926 94.6767 15.6217 94.6767 15.2604C94.6767 14.7324 94.6628 14.2114 94.635 13.6972C94.6211 13.1692 94.6142 12.6065 94.6142 12.009C94.6142 11.1753 94.7809 10.5847 95.1144 10.2374C95.4618 9.8761 96.0176 9.63294 96.7818 9.50788V9.42451C96.0176 9.29946 95.4618 9.06324 95.1144 8.71587C94.7809 8.3546 94.6142 7.75711 94.6142 6.92341C94.6142 6.31203 94.6211 5.74928 94.635 5.23516C94.6628 4.72105 94.6767 4.19998 94.6767 3.67197C94.6767 3.3107 94.6211 3.03975 94.51 2.85911C94.4127 2.66458 94.2251 2.53953 93.9472 2.48395C93.6832 2.41447 93.2872 2.37973 92.7592 2.37973H91.988V0.503906H93.718C95.0797 0.503906 96.0662 0.726226 96.6776 1.17087C97.3029 1.60161 97.6155 2.39363 97.6155 3.54692C97.6155 4.03324 97.5947 4.45009 97.553 4.79747C97.5252 5.13095 97.4905 5.46443 97.4488 5.79791C97.4071 6.1175 97.3863 6.49266 97.3863 6.92341C97.3863 7.15962 97.4696 7.38889 97.6364 7.61121C97.8031 7.83353 98.088 8.02112 98.4909 8.17396C98.9078 8.32681 99.4775 8.41018 100.2 8.42407V10.5083C99.4775 10.5222 98.9078 10.6056 98.4909 10.7584C98.088 10.9113 97.8031 11.0989 97.6364 11.3212C97.4696 11.5435 97.3863 11.7728 97.3863 12.009C97.3863 12.4397 97.4071 12.8218 97.4488 13.1553C97.4905 13.4749 97.5252 13.8084 97.553 14.1558C97.5947 14.4893 97.6155 14.8992 97.6155 15.3855C97.6155 16.5249 97.3029 17.3169 96.6776 17.7615C96.0662 18.2062 95.0797 18.4285 93.718 18.4285H91.988Z" fill="white"/>
<path d="M85.1806 15.5108C84.0829 15.5108 83.0894 15.2955 82.2002 14.8647C81.3248 14.434 80.63 13.8157 80.1159 13.0097C79.6018 12.1899 79.3447 11.2034 79.3447 10.0501C79.3447 8.91071 79.6018 7.93806 80.1159 7.13214C80.6439 6.31234 81.3248 5.68706 82.1585 5.25632C82.9922 4.81168 83.8745 4.58936 84.8055 4.58936C85.9032 4.58936 86.8203 4.81862 87.5567 5.27716C88.2931 5.7218 88.842 6.32623 89.2033 7.09046C89.5784 7.85469 89.766 8.70228 89.766 9.63325C89.766 9.93894 89.7452 10.2377 89.7035 10.5295C89.6757 10.8074 89.6479 11.0089 89.6201 11.1339H82.0543V8.79955H87.1398L86.6396 9.42483C86.6396 8.73007 86.5007 8.20206 86.2228 7.84079C85.9449 7.47952 85.5141 7.29888 84.9305 7.29888C84.472 7.29888 84.0829 7.39615 83.7633 7.59068C83.4577 7.78521 83.2214 8.0909 83.0547 8.50775C82.888 8.91071 82.8046 9.42482 82.8046 10.0501C82.8046 10.7032 82.9088 11.2312 83.1172 11.6341C83.3395 12.0371 83.6591 12.3358 84.076 12.5304C84.5067 12.711 85.0417 12.8013 85.6809 12.8013C86.0977 12.8013 86.5007 12.7527 86.8897 12.6554C87.2927 12.5443 87.7234 12.3845 88.182 12.176L89.3491 14.302C88.7239 14.691 88.0361 14.9898 87.2857 15.1982C86.5354 15.4066 85.8337 15.5108 85.1806 15.5108Z" fill="white"/>
<path d="M73.0999 15.5104C72.294 15.5104 71.6409 15.2464 71.1407 14.7184C70.6405 14.1903 70.3904 13.5512 70.3904 12.8008C70.3904 12.0644 70.6405 11.4322 71.1407 10.9042C71.6409 10.3623 72.294 10.0913 73.0999 10.0913C73.9197 10.0913 74.5728 10.3623 75.0591 10.9042C75.5593 11.4322 75.8094 12.0644 75.8094 12.8008C75.8094 13.5512 75.5593 14.1903 75.0591 14.7184C74.5728 15.2464 73.9197 15.5104 73.0999 15.5104Z" fill="white"/>
<path d="M56.476 15.261V1.71338H60.1234L61.2281 6.132L61.6032 7.88277H61.6866L62.0618 6.132L63.1664 1.71338H66.8139V15.261H63.8542V12.0721C63.8542 11.6692 63.8681 11.162 63.8959 10.5506C63.9376 9.93923 63.9793 9.30006 64.021 8.6331C64.0626 7.95225 64.1113 7.30613 64.1669 6.69475C64.2224 6.08336 64.2711 5.58314 64.3127 5.19408H64.2502L63.1039 9.21669L62.3952 11.6761H60.8112L60.0609 9.21669L59.0187 5.19408H58.9354C58.9771 5.58314 59.0257 6.08336 59.0813 6.69475C59.1368 7.30613 59.1855 7.95225 59.2272 8.6331C59.2689 9.30006 59.3036 9.93923 59.3314 10.5506C59.3731 11.162 59.3939 11.6692 59.3939 12.0721V15.261H56.476Z" fill="white"/>
<path d="M45.3124 15.261V12.2597H48.3971V4.7147H45.3124V1.71338H55.0667V4.7147H51.982V12.2597H55.0667V15.261H45.3124Z" fill="white"/>
<path d="M33.6904 15.261V1.71338H38.7343C39.707 1.71338 40.6032 1.84538 41.423 2.10939C42.2428 2.3595 42.9028 2.80414 43.4031 3.44331C43.9033 4.08248 44.1534 4.96482 44.1534 6.09031C44.1534 7.17412 43.9033 8.05646 43.4031 8.73731C42.9028 9.41817 42.2428 9.91839 41.423 10.238C40.6032 10.5576 39.707 10.7174 38.7343 10.7174H37.2753V15.261H33.6904ZM37.2753 7.88277H38.4842C39.1929 7.88277 39.7278 7.72993 40.0891 7.42423C40.4643 7.11854 40.6518 6.6739 40.6518 6.09031C40.6518 5.50672 40.4643 5.10377 40.0891 4.88144C39.7278 4.65912 39.1929 4.54796 38.4842 4.54796H37.2753V7.88277ZM38.0882 9.77944L40.5059 7.40339L44.9037 15.261H40.9019L38.0882 9.77944Z" fill="white"/>
<path d="M22.777 15.261V1.71338H31.9894V4.7147H26.3619V6.84064H31.1557V9.84197H26.3619V12.2597H32.1978V15.261H22.777Z" fill="white"/>
<path d="M14.0312 15.261V10.7799L9.73767 1.71338H13.5727L14.6982 4.67302C14.8788 5.18714 15.0595 5.6943 15.2401 6.19452C15.4346 6.69475 15.6222 7.21581 15.8029 7.75772H15.8862C16.0808 7.21581 16.2753 6.69475 16.4698 6.19452C16.6643 5.6943 16.8519 5.18714 17.0326 4.67302L18.1581 1.71338H21.9097L17.6162 10.7799V15.261H14.0312Z" fill="white"/>
<path d="M6.68198 18.4285C5.33416 18.4285 4.34762 18.2062 3.72234 17.7615C3.09706 17.3169 2.78443 16.5249 2.78443 15.3855C2.78443 14.8992 2.79832 14.4893 2.82611 14.1558C2.8678 13.8084 2.90253 13.4749 2.93032 13.1553C2.97201 12.8218 2.99285 12.4397 2.99285 12.009C2.99285 11.7728 2.90948 11.5435 2.74274 11.3212C2.576 11.0989 2.29115 10.9113 1.8882 10.7584C1.48524 10.6056 0.922493 10.5222 0.199951 10.5083V8.42407C0.922493 8.41018 1.48524 8.32681 1.8882 8.17396C2.29115 8.02112 2.576 7.83353 2.74274 7.61121C2.90948 7.38889 2.99285 7.15962 2.99285 6.92341C2.99285 6.49266 2.97201 6.1175 2.93032 5.79791C2.90253 5.46443 2.8678 5.13095 2.82611 4.79747C2.79832 4.45009 2.78443 4.03324 2.78443 3.54692C2.78443 2.39363 3.09706 1.60161 3.72234 1.17087C4.34762 0.726226 5.33416 0.503906 6.68198 0.503906H8.41191V2.37973H7.64074C7.11273 2.37973 6.70977 2.41447 6.43187 2.48395C6.15397 2.53953 5.95944 2.66458 5.84828 2.85911C5.75101 3.03975 5.70238 3.3107 5.70238 3.67197C5.70238 4.19998 5.71628 4.72105 5.74407 5.23516C5.77186 5.74928 5.78575 6.31203 5.78575 6.92341C5.78575 7.75711 5.61206 8.3546 5.26469 8.71587C4.93121 9.06324 4.38235 9.29946 3.61813 9.42451V9.50788C4.38235 9.63294 4.93121 9.8761 5.26469 10.2374C5.61206 10.5847 5.78575 11.1753 5.78575 12.009C5.78575 12.6065 5.77186 13.1692 5.74407 13.6972C5.71628 14.2114 5.70238 14.7324 5.70238 15.2604C5.70238 15.6217 5.75101 15.8926 5.84828 16.0733C5.95944 16.2678 6.15397 16.3929 6.43187 16.4484C6.70977 16.5179 7.11273 16.5527 7.64074 16.5527H8.41191V18.4285H6.68198Z" fill="white"/>
</svg>
