<svg width="100%"  viewBox="0 0 101 19" fill="none" xmlns="http://www.w3.org/2000/svg">
<path d="M91.0972 4.40687C91.4238 4.31075 91.7723 4.2627 92.1425 4.2627C92.5127 4.2627 92.8647 4.27748 93.1987 4.30706L93.656 4.35142C94.3746 4.41796 94.9263 4.50299 95.311 4.6065V4.59541L95.5397 4.69523C97.0641 5.17582 98.2509 5.9078 99.1002 6.89117V6.88008C99.2962 7.11668 99.5358 7.47527 99.8189 7.95586C100.109 8.42906 100.254 8.75808 100.254 8.94293L100.342 9.24237L100.396 9.564C100.534 10.0594 100.603 10.4734 100.603 10.8061C100.603 11.1389 100.606 11.3939 100.614 11.5714H91.6416V11.9374C91.6851 12.1074 91.7069 12.2849 91.7069 12.4697C91.7069 12.6546 91.7069 12.8025 91.7069 12.9134C91.7142 13.0169 91.7251 13.1204 91.7396 13.2239C91.7541 13.32 91.7614 13.4013 91.7614 13.4679C91.7686 13.527 91.7868 13.601 91.8158 13.6897C91.8448 13.771 91.8594 13.8265 91.8594 13.8561C91.8666 13.8856 91.8884 13.9448 91.9247 14.0335C91.9682 14.1222 92.0009 14.2073 92.0227 14.2886C92.0517 14.3625 92.1025 14.4365 92.1751 14.5104V14.4993L92.2949 14.7322C92.4328 14.8875 92.6216 14.9984 92.8611 15.0649C93.2604 14.9762 93.5289 14.7655 93.6669 14.4328C93.812 14.1001 93.9318 13.686 94.0262 13.1906C94.2875 13.1167 94.6577 13.0797 95.1368 13.0797L96.5305 13.113H100.548C100.461 14.015 100.2 14.8431 99.7644 15.5973H99.7753C99.3978 16.2036 98.8099 16.7248 98.0114 17.1611C95.7538 17.967 94.3056 18.3699 93.6669 18.3699C93.5507 18.3699 93.4563 18.3625 93.3838 18.3478H93.1333L93.0353 18.3588H92.9373C92.8793 18.3588 92.8067 18.3514 92.7196 18.3367C92.647 18.381 92.5599 18.4032 92.4582 18.4032L91.5109 18.2923C91.4601 18.3145 91.3549 18.3256 91.1952 18.3256C91.0427 18.3256 90.6362 18.2258 89.9757 18.0261V18.0372L89.7143 17.9596L89.453 17.8709C88.3642 17.5455 87.4314 16.9762 86.6547 16.1629C85.8779 15.3422 85.3807 14.3884 85.1629 13.3015C85.1412 13.1684 85.1012 12.9688 85.0432 12.7026C84.9851 12.4291 84.9561 12.2442 84.9561 12.1481V11.6158C84.9561 11.4901 84.9597 11.3939 84.9669 11.3274V11.161C84.9669 9.59357 85.4243 8.24052 86.3389 7.10189C87.2535 5.95586 88.4803 5.14994 90.0192 4.68414L90.2805 4.6065C90.6653 4.53996 90.9411 4.46972 91.1081 4.39578L91.0972 4.40687ZM94.3528 10.1074L94.5815 9.96326C94.4581 9.16474 94.3419 8.65457 94.2331 8.43276C94.1242 8.20355 94.0189 8.00762 93.9173 7.84496C93.7286 7.53442 93.4781 7.37915 93.166 7.37915C92.8611 7.37915 92.5998 7.53442 92.382 7.84496C91.9973 8.39209 91.7541 9.16104 91.6525 10.1518C92.1171 10.1222 92.5453 10.1074 92.9373 10.1074H94.3528Z" fill="white"/>
<path d="M83.725 15.1869C83.725 15.978 83.7358 16.54 83.7576 16.8727V17.6379L83.7685 17.7821C83.7685 18.0631 83.7576 18.2036 83.7358 18.2036C83.7213 18.2036 83.1079 18.2331 81.8957 18.2923C80.6907 18.3588 79.4893 18.3921 78.2916 18.3921L78.0412 17.9928C78.0339 17.9263 78.0303 17.8376 78.0303 17.7267L78.0629 16.5732V15.9743C78.0629 14.3551 78.1138 13.4901 78.2154 13.3792C79.914 13.3939 81.1988 13.4013 82.0699 13.4013H82.5708L82.8212 13.3902C83.4019 13.3902 83.6923 13.4235 83.6923 13.4901L83.725 15.1869Z" fill="white"/>
<path d="M67.0981 6.95771C68.4483 5.16103 69.7948 4.2627 71.1378 4.2627C72.4807 4.2627 73.6639 4.76917 74.6874 5.78211C75.1883 6.28488 75.5258 6.84311 75.7 7.45679L75.7763 7.75623C75.9722 8.45124 76.0702 8.88378 76.0702 9.05383C76.0702 9.21649 76.0557 9.34958 76.0267 9.45309C76.0775 9.49746 76.1029 9.564 76.1029 9.65272L76.0811 10.0853C76.0956 10.6176 76.1029 10.991 76.1029 11.2054V18.015H69.5045L69.4936 11.4938L69.5045 11.2498C69.5045 10.1777 69.2105 9.64163 68.6225 9.64163C67.9619 9.64163 67.6317 10.2331 67.6317 11.4161L67.6534 12.1814V18.0039L64.6264 18.015H61.6103L61.5994 12.0594L61.6212 11.3385C61.6212 10.3773 61.3308 9.80799 60.7501 9.63054C60.0678 9.66751 59.7266 10.2036 59.7266 11.2387L59.7484 11.9041V18.0039L56.2423 18.015H52.758L52.7471 11.3496V4.7285L55.7305 4.71741H58.7249L58.8011 4.98358C59.0697 5.95216 59.2729 6.70632 59.4108 7.24607C59.8827 6.41797 60.4307 5.71556 61.055 5.13885C61.6865 4.55475 62.3144 4.2627 62.9387 4.2627C63.1347 4.2627 63.3307 4.2627 63.5267 4.2627C64.1582 4.2627 64.8043 4.52887 65.4648 5.06122C66.1254 5.58617 66.6698 6.21834 67.0981 6.95771Z" fill="white"/>
<path d="M51.4952 0.502787L51.5061 3.54161H44.7988C44.7988 2.83181 44.7915 2.32534 44.777 2.0222L44.7661 0.524968L51.4952 0.502787ZM44.6572 0.524968L44.7661 0.414062V0.524968H44.6572ZM51.5388 14.488L51.5496 14.5878L51.5605 16.2514C51.5605 16.5546 51.546 16.9169 51.517 17.3383C51.4879 17.7598 51.4625 17.9779 51.4408 17.9927L51.2448 18.0148H47.2814L46.824 18.0592C45.6916 18.0592 45.002 18.0444 44.7552 18.0148V17.9372L44.7443 17.7265V17.2274C44.7443 15.7708 44.7661 14.562 44.8097 13.6008L44.9294 5.06102V4.7283L45.7787 4.71721L45.9638 4.7283H46.2796L46.5518 4.73939L46.6934 4.7283H47.4773L47.6407 4.71721L51.3537 4.76158C51.3827 4.75418 51.4045 4.75049 51.419 4.75049C51.4335 4.75049 51.4408 4.77267 51.4408 4.81703L51.4517 5.87064C51.4589 6.57304 51.4734 7.51574 51.4952 8.69874C51.517 9.87434 51.5279 10.7061 51.5279 11.1941L51.517 12.5804V13.1682L51.5496 13.756V14.0999C51.5496 14.1073 51.546 14.122 51.5388 14.1442V14.488Z" fill="white"/>
<path d="M31.6562 4.72836L34.5526 4.71727H37.4489L37.6885 6.20341C37.8554 7.24593 37.9534 7.83742 37.9825 7.97791H38.3636C38.6321 6.71358 39.1475 5.81524 39.9097 5.28289L40.3453 5.02781C40.3671 4.98344 40.4977 4.90211 40.7373 4.78381L40.6937 4.7949L40.9441 4.69509C41.6555 4.40673 42.2689 4.25886 42.7843 4.25146C42.8932 4.25146 42.9658 4.25886 43.0021 4.27365H43.4049V10.4622C43.2525 10.4252 43.013 10.4067 42.6863 10.4067C42.3596 10.4067 42.0221 10.4548 41.6737 10.5509C41.3325 10.647 41.0421 10.7727 40.8026 10.928C40.5703 11.0759 40.3671 11.2681 40.1928 11.5047C39.6557 12.2367 39.3871 13.3347 39.3871 14.7986L39.4089 15.9631V18.0038L35.5326 18.0149H31.6671L31.6562 11.3938V4.72836Z" fill="white"/>
<path d="M21.1274 4.40687C21.4541 4.31075 21.8025 4.2627 22.1727 4.2627C22.5429 4.2627 22.895 4.27748 23.2289 4.30706L23.6862 4.35142C24.4049 4.41796 24.9566 4.50299 25.3413 4.6065V4.59541L25.57 4.69523C27.0943 5.17582 28.2812 5.9078 29.1305 6.89117V6.88008C29.3265 7.11668 29.566 7.47527 29.8491 7.95586C30.1395 8.42906 30.2847 8.75808 30.2847 8.94293L30.3718 9.24237L30.4262 9.564C30.5641 10.0594 30.6331 10.4734 30.6331 10.8061C30.6331 11.1389 30.6367 11.3939 30.644 11.5714H21.6719V11.9374C21.7154 12.1074 21.7372 12.2849 21.7372 12.4697C21.7372 12.6546 21.7372 12.8025 21.7372 12.9134C21.7445 13.0169 21.7553 13.1204 21.7699 13.2239C21.7844 13.32 21.7916 13.4013 21.7916 13.4679C21.7989 13.527 21.817 13.601 21.8461 13.6897C21.8751 13.771 21.8896 13.8265 21.8896 13.8561C21.8969 13.8856 21.9187 13.9448 21.955 14.0335C21.9985 14.1222 22.0312 14.2073 22.053 14.2886C22.082 14.3625 22.1328 14.4365 22.2054 14.5104V14.4993L22.3252 14.7322C22.4631 14.8875 22.6518 14.9984 22.8914 15.0649C23.2906 14.9762 23.5592 14.7655 23.6971 14.4328C23.8423 14.1001 23.9621 13.686 24.0564 13.1906C24.3178 13.1167 24.688 13.0797 25.1671 13.0797L26.5608 13.113H30.5787C30.4916 14.015 30.2302 14.8431 29.7947 15.5973H29.8056C29.4281 16.2036 28.8401 16.7248 28.0416 17.1611C25.7841 17.967 24.3359 18.3699 23.6971 18.3699C23.581 18.3699 23.4866 18.3625 23.414 18.3478H23.1636L23.0656 18.3588H22.9676C22.9095 18.3588 22.8369 18.3514 22.7498 18.3367C22.6772 18.381 22.5901 18.4032 22.4885 18.4032L21.5412 18.2923C21.4904 18.3145 21.3851 18.3256 21.2254 18.3256C21.073 18.3256 20.6665 18.2258 20.0059 18.0261V18.0372L19.7446 17.9596L19.4833 17.8709C18.3944 17.5455 17.4616 16.9762 16.6849 16.1629C15.9082 15.3422 15.411 14.3884 15.1932 13.3015C15.1714 13.1684 15.1315 12.9688 15.0734 12.7026C15.0154 12.4291 14.9863 12.2442 14.9863 12.1481V11.6158C14.9863 11.4901 14.99 11.3939 14.9972 11.3274V11.161C14.9972 9.59357 15.4545 8.24052 16.3692 7.10189C17.2838 5.95586 18.5106 5.14994 20.0495 4.68414L20.3108 4.6065C20.6955 4.53996 20.9714 4.46972 21.1383 4.39578L21.1274 4.40687ZM24.3831 10.1074L24.6118 9.96326C24.4884 9.16474 24.3722 8.65457 24.2633 8.43276C24.1544 8.20355 24.0492 8.00762 23.9476 7.84496C23.7588 7.53442 23.5084 7.37915 23.1963 7.37915C22.8914 7.37915 22.6301 7.53442 22.4123 7.84496C22.0276 8.39209 21.7844 9.16104 21.6828 10.1518C22.1473 10.1222 22.5756 10.1074 22.9676 10.1074H24.3831Z" fill="white"/>
<path d="M17.632 1.29L17.9913 1.27891C18.0639 1.31588 18.1184 1.4083 18.1547 1.55618L17.828 2.21052V2.19943L17.1202 3.58576C16.0532 5.59685 15.3636 6.93881 15.0514 7.61164L14.6812 8.33253C14.282 9.11627 13.6033 10.4989 12.6451 12.4804C12.6306 12.7318 12.6233 13.1089 12.6233 13.6117V18.1921C12.587 18.3104 12.5144 18.3695 12.4055 18.3695L6.16642 18.4139C6.00672 18.2069 5.92687 17.9703 5.92687 17.7041L5.94865 16.3178V15.9961L5.95954 15.6634L5.97042 14.8538C5.97042 13.3085 5.58207 11.6523 4.80535 9.88521C4.6384 9.51553 4.39522 8.99427 4.07582 8.32144L2.45344 5.01644C2.40988 4.93511 2.29374 4.7096 2.10501 4.33992C1.91627 3.97023 1.70939 3.57097 1.48436 3.14213V3.15322C0.903641 2.25119 0.613281 1.6523 0.613281 1.35655C0.613281 1.31958 0.729425 1.30109 0.961713 1.30109H3.76006C5.30623 1.30109 6.4713 1.31218 7.25527 1.33437C7.48756 1.37873 8.09368 3.15692 9.07365 6.66894L9.56363 8.43235C10.304 6.42125 11.0844 4.06265 11.9047 1.35655C11.9119 1.2974 12.4491 1.26782 13.5162 1.26782H14.9099C15.2438 1.26782 15.5233 1.27522 15.7483 1.29H17.632Z" fill="white"/>
</svg>
