<svg xmlns="http://www.w3.org/2000/svg" xmlns:xlink="http://www.w3.org/1999/xlink" viewBox="0 0 1200 1200" width="1200" height="1200" preserveAspectRatio="xMidYMid meet" style="width: 100%; height: 100%; transform: translate3d(0px, 0px, 0px); content-visibility: visible;"><defs><clipPath id="__lottie_element_5"><rect width="1200" height="1200" x="0" y="0"></rect></clipPath><clipPath id="__lottie_element_7"><path d="M0,0 L3000,0 L3000,3000 L0,3000z"></path></clipPath><path d="" fill-opacity="1"></path><mask id="__lottie_element_13" mask-type="alpha"><g fill="none" stroke-linecap="round" stroke-dashoffset="1" stroke="#fff" stroke-width="315.2" opacity="1"><path d=" M535.7139892578125,732.1430053710938 C535.7139892578125,732.1430053710938 2380.951904296875,1511.905029296875 2380.951904296875,1511.905029296875 C2380.951904296875,1511.905029296875 517.8569946289062,2267.85693359375 517.8569946289062,2267.85693359375" stroke-dasharray="1 47.28"></path></g></mask></defs><g clip-path="url(#__lottie_element_5)"><g clip-path="url(#__lottie_element_7)" transform="matrix(0.671999990940094,0,0,0.671999990940094,-408,-408)" opacity="1" style="display: block;"><g mask="url(#__lottie_element_13)"><g transform="matrix(1,0,0,1,633.7490234375,614.593017578125)" opacity="1" style="display: block;"><g opacity="1" transform="matrix(1,0,0,1,865.989990234375,885.625)"><path fill="rgb(255,255,255)" fill-opacity="1" d=" M865.739990234375,153.50900268554688 C865.739990234375,153.50900268554688 -865.739990234375,885.375 -865.739990234375,885.375 C-865.739990234375,885.375 -865.739990234375,565.8489990234375 -865.739990234375,565.8489990234375 C-865.739990234375,565.8489990234375 508.7300109863281,3.568000078201294 508.7300109863281,3.568000078201294 C508.7300109863281,3.568000078201294 -865.739990234375,-565.8560180664062 -865.739990234375,-565.8560180664062 C-865.739990234375,-565.8560180664062 -865.739990234375,-885.375 -865.739990234375,-885.375 C-865.739990234375,-885.375 865.739990234375,-146.375 865.739990234375,-146.375 C865.739990234375,-146.375 865.739990234375,153.50900268554688 865.739990234375,153.50900268554688z"></path></g></g></g></g></g></svg>