<?xml version="1.0" encoding="utf-8"?>
<!-- Generator: Adobe Illustrator 28.2.0, SVG Export Plug-In . SVG Version: 6.00 Build 0)  -->
<svg version="1.1" id="레이어_1" xmlns="http://www.w3.org/2000/svg" xmlns:xlink="http://www.w3.org/1999/xlink" x="0px"
	 y="0px" viewBox="0 0 800 600" style="enable-background:new 0 0 800 600;" xml:space="preserve">
<style type="text/css">
	.st0{display:none;fill:#FFFFFF;}
	.st1{display:none;}
	.st2{display:inline;fill:#2A2A2A;}
	.st3{display:inline;fill:#DF6417;}
	.st4{display:inline;}
	.st5{clip-path:url(#SVGID_00000057833495915559209630000000244141195958155936_);}
	.st6{fill:#FFFFFF;}
	.st7{fill:#2A2A2A;}
	.st8{clip-path:url(#SVGID_00000103225418990589331200000007344036316574639544_);fill:#2A2A2A;}
	
		.st9{clip-path:url(#SVGID_00000106843175952363282050000016201764184994739619_);fill:#FFFFFF;stroke:#000000;stroke-width:2;stroke-linecap:round;stroke-linejoin:round;stroke-miterlimit:10;}
	.st10{clip-path:url(#SVGID_00000160901794067249817290000012778894279707172505_);fill:#2A2A2A;}
	.st11{clip-path:url(#SVGID_00000104674600561104211150000009351930068794610863_);fill:#FFFFFF;}
	.st12{clip-path:url(#SVGID_00000057836401081481955900000007071701519947040131_);fill:#2A2A2A;}
	.st13{clip-path:url(#SVGID_00000058549895021899206740000005428304853751967115_);fill:#FFFFFF;}
	.st14{clip-path:url(#SVGID_00000082340007003883757230000003048398000149142934_);fill:#2A2A2A;}
	.st15{clip-path:url(#SVGID_00000178918180512202819470000017353581050263868604_);fill:#2A2A2A;}
	.st16{clip-path:url(#SVGID_00000067238620680675677080000012415205765133975710_);fill:#2A2A2A;}
	.st17{clip-path:url(#SVGID_00000165949542675415448790000016653296450385813134_);fill:#2A2A2A;}
	.st18{clip-path:url(#SVGID_00000056396130772668171140000011230010620836623548_);fill:#2A2A2A;}
	.st19{fill:#F06400;}
</style>
<path class="st0" d="M402.5,0l31.4,210.4L650,39.6l6.6,7L486.2,262.8l210.4,31.4v9.1l-208.8,32.2l168.8,215.4l-6.6,7L435.5,387
	l-32.2,209.6h-9.5l-31-209.6L145.4,557.9l-5.8-7l170-217L100,302.5v-8.3L307.6,262l-168-215.4l5.8-7l215.8,170L393,0H402.5z"/>
<g class="st1">
	<path class="st2" d="M400,416c-64,0-116-52-116-116s52-116,116-116s116,52,116,116S464,416,400,416z M400,187.6
		c-62,0-112.4,50.4-112.4,112.4S338,412.4,400,412.4S512.4,362,512.4,300S462,187.6,400,187.6z"/>
	<circle class="st3" cx="400" cy="300" r="112.4"/>
	<g class="st4">
		<g>
			<defs>
				<circle id="SVGID_1_" cx="400" cy="300" r="112.4"/>
			</defs>
			<clipPath id="SVGID_00000133527364585084686240000005398763545904109735_">
				<use xlink:href="#SVGID_1_"  style="overflow:visible;"/>
			</clipPath>
			<g style="clip-path:url(#SVGID_00000133527364585084686240000005398763545904109735_);">
				<path class="st6" d="M400,418.8"/>
				<path class="st6" d="M400,418.8h57.9l-11.4-19.6c-9-14-8.6-40.7-8.6-40.7c23.1,0.4,24.4-8.7,24.4-8.7c2.7,8.7,19.1,7.5,19.1,7.5
					c19.5,0,19.9-25.5,19.9-25.5c0-23-14.5-31.6-14.5-31.6c-2.4-60-31.4-71.8-31.4-71.8c-29.3-16.2-47.8-5.7-53.5-1.5h-3.7
					c-5.7-4.2-24.3-14.6-53.5,1.5c0,0-29,11.8-31.4,71.8c0,0-14.5,8.6-14.5,31.6c0,0,0.4,25.5,19.9,25.5c0,0,16.4,1.1,19.1-7.5
					c0,0,1.2,9.1,24.4,8.7c0,0,0.4,26.7-8.6,40.7l-11.4,19.6H400z"/>
				<path class="st7" d="M488.5,299.2c-2.6-58.5-30.1-71.5-32.4-72.5c-7.8-4.3-34.3-16.7-55.1-1.5c-0.3,0.1-0.6,0.1-1,0.2
					c0,0,0,0-0.1,0c0,0,0,0-0.1,0c-0.4,0-0.7-0.1-1-0.2c-20.8-15.2-47.3-2.8-55.1,1.5c-2.2,1-29.8,13.9-32.4,72.5
					c-3.2,2.3-14.6,11.8-14.6,32.6c0.2,9.4,4.9,27.2,21.6,27.2l0,0c0.6,0,13.9,0.9,19.2-5.6c0.6,0.7,1.4,1.5,2.5,2.3
					c4.3,3,11,4.5,20.1,4.5c-0.1,6.1-1,26.6-8.3,38l-11.4,19.6c-0.3,0.5-0.3,1.2,0,1.8s0.9,0.9,1.5,0.9H400h57.9
					c0.6,0,1.2-0.3,1.5-0.9s0.3-1.2,0-1.8L448,398.3c-7.3-11.4-8.2-31.9-8.3-38c9.1,0,15.8-1.5,20.1-4.5c1.1-0.8,1.9-1.5,2.5-2.3
					c5.3,6.5,18.6,5.6,19.2,5.6l0,0c16.7,0,21.4-17.8,21.6-27.2C503.1,311,491.8,301.5,488.5,299.2z M481.4,355.6
					c-4.3,0.3-15.6-0.3-17.4-6.3c0,0-0.6-1.3-0.4-3.2c0,0-1.2,9.5-25.6,10.6h-1.7l-0.1,1.7c0,1.1-0.3,27.4,8.8,41.6l9.8,16.9H400
					h-54.8L355,400c9.1-14.3,8.9-40.5,8.8-41.6l-0.1-1.7H362c-24.4-1.1-25.6-10.6-25.6-10.6c0.2,1.9-0.4,3.2-0.4,3.2
					c-1.9,6-13.1,6.6-17.4,6.3c-17.5,0-18.2-22.8-18.2-23.7c0-21.6,13.1-29.8,13.6-30.1l0.8-0.5v-1c2.3-58,30.1-70.2,30.3-70.3
					c0.1,0,0.1-0.1,0.2-0.1c7.2-4,32.4-15.9,51.6-1.7l2.9,2.5l2.9-2.5c19.3-14.3,44.4-2.3,51.6,1.7c0.1,0,0.1,0.1,0.2,0.1
					c0.3,0.1,28,12.3,30.3,70.3v1l0.8,0.5c0.6,0.3,13.6,8.5,13.6,30.1C499.5,332.8,498.9,355.6,481.4,355.6z"/>
			</g>
		</g>
		<g>
			<defs>
				<circle id="SVGID_00000091720698020994011800000011696699235800790416_" cx="400" cy="300" r="112.4"/>
			</defs>
			<clipPath id="SVGID_00000050628995730662061460000008859173968230137227_">
				<use xlink:href="#SVGID_00000091720698020994011800000011696699235800790416_"  style="overflow:visible;"/>
			</clipPath>
			<path style="clip-path:url(#SVGID_00000050628995730662061460000008859173968230137227_);fill:#2A2A2A;" d="M331.4,342.5
				c0,0,6.8,3.6-2.5,8.5c0,0-18.4,7.7-24.5-9.1c0,0-5.1-14.9,6.1-32.9c0.1-0.2,0.2-0.3,0.3-0.4c0.8-0.9,3.9-4.4,5-3.4
				c0,0,0.8,0.4,0.5,2.1C316.2,307.1,316.6,333,331.4,342.5z"/>
		</g>
		<g>
			<defs>
				<circle id="SVGID_00000145745294681909459360000011315500540793568959_" cx="400" cy="300" r="112.4"/>
			</defs>
			<clipPath id="SVGID_00000000911371142335034730000000896903387975250578_">
				<use xlink:href="#SVGID_00000145745294681909459360000011315500540793568959_"  style="overflow:visible;"/>
			</clipPath>
			
				<path style="clip-path:url(#SVGID_00000000911371142335034730000000896903387975250578_);fill:#FFFFFF;stroke:#000000;stroke-width:2;stroke-linecap:round;stroke-linejoin:round;stroke-miterlimit:10;" d="
				M398.3,418.8"/>
		</g>
		<g>
			<defs>
				<circle id="SVGID_00000000903535399499768740000004741138937056223914_" cx="400" cy="300" r="112.4"/>
			</defs>
			<clipPath id="SVGID_00000055702054738358262040000001886568337192526739_">
				<use xlink:href="#SVGID_00000000903535399499768740000004741138937056223914_"  style="overflow:visible;"/>
			</clipPath>
			<path style="clip-path:url(#SVGID_00000055702054738358262040000001886568337192526739_);fill:#2A2A2A;" d="M375.5,245.2
				c0,0,20.5,6.1,8.2,23.1c0,0-12.5,21.7-40.7,21.7c0,0-13.1,1-13.1-18.6c0,0-3.5-33.5,16-32.4C345.9,239,361,239.5,375.5,245.2z"/>
		</g>
		<g>
			<defs>
				<circle id="SVGID_00000013193856574107373320000011415861012803453578_" cx="400" cy="300" r="112.4"/>
			</defs>
			<clipPath id="SVGID_00000101078105219758916900000001949825852527441084_">
				<use xlink:href="#SVGID_00000013193856574107373320000011415861012803453578_"  style="overflow:visible;"/>
			</clipPath>
			
				<circle style="clip-path:url(#SVGID_00000101078105219758916900000001949825852527441084_);fill:#FFFFFF;" cx="366.2" cy="260.7" r="6.5"/>
		</g>
		<g>
			<defs>
				<circle id="SVGID_00000034085358029698370680000013611937992992245135_" cx="400" cy="300" r="112.4"/>
			</defs>
			<clipPath id="SVGID_00000003798311913685985380000007270005073400561564_">
				<use xlink:href="#SVGID_00000034085358029698370680000013611937992992245135_"  style="overflow:visible;"/>
			</clipPath>
			<path style="clip-path:url(#SVGID_00000003798311913685985380000007270005073400561564_);fill:#2A2A2A;" d="M424.5,245.2
				c0,0-20.5,6.1-8.2,23.1c0,0,12.5,21.7,40.7,21.7c0,0,13.1,1,13.1-18.6c0,0,3.5-33.5-16-32.4C454.1,239,439,239.5,424.5,245.2z"/>
		</g>
		<g>
			<defs>
				<circle id="SVGID_00000024000282959023819060000018152825934191308445_" cx="400" cy="300" r="112.4"/>
			</defs>
			<clipPath id="SVGID_00000149354224127850118990000013329074060594419584_">
				<use xlink:href="#SVGID_00000024000282959023819060000018152825934191308445_"  style="overflow:visible;"/>
			</clipPath>
			
				<circle style="clip-path:url(#SVGID_00000149354224127850118990000013329074060594419584_);fill:#FFFFFF;" cx="433.8" cy="260.7" r="6.5"/>
		</g>
		<g>
			<defs>
				<circle id="SVGID_00000009576915829331580790000006292967280133187468_" cx="400" cy="300" r="112.4"/>
			</defs>
			<clipPath id="SVGID_00000151527338045376420590000005888491883381996956_">
				<use xlink:href="#SVGID_00000009576915829331580790000006292967280133187468_"  style="overflow:visible;"/>
			</clipPath>
			<path style="clip-path:url(#SVGID_00000151527338045376420590000005888491883381996956_);fill:#2A2A2A;" d="M399.9,276.7
				c0,0,6.5-0.8,6.5-4.9c0,0,0.7-2.8-6.5-2.6c-7.3-0.2-6.5,2.6-6.5,2.6C393.3,275.9,399.9,276.7,399.9,276.7z"/>
		</g>
		<g>
			<defs>
				<circle id="SVGID_00000124883980803300114690000000763565791839480212_" cx="400" cy="300" r="112.4"/>
			</defs>
			<clipPath id="SVGID_00000132768827533971814970000007551437428101749646_">
				<use xlink:href="#SVGID_00000124883980803300114690000000763565791839480212_"  style="overflow:visible;"/>
			</clipPath>
			<path style="clip-path:url(#SVGID_00000132768827533971814970000007551437428101749646_);fill:#2A2A2A;" d="M399.9,285.7
				c-13.3,0-13.7-4.4-13.7-5c0-0.5,0.4-0.9,0.9-0.9s0.9,0.4,0.9,0.8c0.1,0.9,2.3,3.1,11.1,3.2v-7.3c0-0.5,0.4-0.9,0.9-0.9
				s0.9,0.4,0.9,0.9v8.1C400.7,285.3,400.3,285.7,399.9,285.7z M387.9,280.8L387.9,280.8L387.9,280.8z"/>
		</g>
		<g>
			<defs>
				<circle id="SVGID_00000092433223792039841400000015316613260040835475_" cx="400" cy="300" r="112.4"/>
			</defs>
			<clipPath id="SVGID_00000057114978504911734210000003324891209719920515_">
				<use xlink:href="#SVGID_00000092433223792039841400000015316613260040835475_"  style="overflow:visible;"/>
			</clipPath>
			<path style="clip-path:url(#SVGID_00000057114978504911734210000003324891209719920515_);fill:#2A2A2A;" d="M399.9,285.7
				c-0.5,0-0.9-0.4-0.9-0.9v-8.1c0-0.5,0.4-0.9,0.9-0.9s0.9,0.4,0.9,0.9v7.3c8.8-0.1,11-2.4,11.1-3.2c0-0.5,0.4-0.9,0.9-0.9
				s0.9,0.4,0.9,0.9C413.6,281.3,413.2,285.7,399.9,285.7z"/>
		</g>
		<g>
			<defs>
				<circle id="SVGID_00000037672945669452436360000012097294477996533653_" cx="400" cy="300" r="112.4"/>
			</defs>
			<clipPath id="SVGID_00000056394583571114841140000000876553853696656285_">
				<use xlink:href="#SVGID_00000037672945669452436360000012097294477996533653_"  style="overflow:visible;"/>
			</clipPath>
			<path style="clip-path:url(#SVGID_00000056394583571114841140000000876553853696656285_);fill:#2A2A2A;" d="M399.9,360.6
				c11.3,0,11.3-3,11.3-3c0-0.9-3.2,0.4-3.2,0.4s-2.4,0.8-8.1,0.8c-5.6,0-8-0.9-8-0.9s-3.3-1.2-3.3-0.3
				C388.6,357.5,388.5,360.6,399.9,360.6z"/>
		</g>
		<g>
			<defs>
				<circle id="SVGID_00000057861828644159116760000012881531755435726505_" cx="400" cy="300" r="112.4"/>
			</defs>
			<clipPath id="SVGID_00000034052616138229141840000000226706305142372781_">
				<use xlink:href="#SVGID_00000057861828644159116760000012881531755435726505_"  style="overflow:visible;"/>
			</clipPath>
			<path style="clip-path:url(#SVGID_00000034052616138229141840000000226706305142372781_);fill:#2A2A2A;" d="M468.3,342.5
				c0,0-6.8,3.6,2.5,8.5c0,0,18.4,7.7,24.5-9.1c0,0,5.1-14.9-6.1-32.9c-0.1-0.2-0.2-0.3-0.3-0.4c-0.8-0.9-3.9-4.4-5-3.4
				c0,0-0.8,0.4-0.5,2.1C483.5,307.1,483.1,333,468.3,342.5z"/>
		</g>
	</g>
</g>
<g class="st1">
	<g class="st4">
		<g>
			<g>
				<g>
					<g>
						<path class="st6" d="M248.6,589.2c1.3,3.1,2.6,6.1,4.1,9.1L248.6,589.2z"/>
					</g>
				</g>
			</g>
		</g>
	</g>
	<g class="st4">
		<g>
			<g>
				<g>
					<g>
						<path class="st6" d="M698.3,447.3c-3,1.5-6,2.9-9.1,4.2L698.3,447.3z"/>
					</g>
				</g>
			</g>
		</g>
	</g>
	<g class="st4">
		<g>
			<g>
				<g>
					<g>
						<path class="st6" d="M551,447.3c-23.9-11.9-38.1-33.6-38.7-61.1c-0.2-10.4,2.1-20.7,5.8-30.5c7.2-18.8,15-37.3,22.6-55.7h-0.2
							c32.8-95.9,53.8-194.8,10.9-289.2c17.8,43,16.5,97-4.1,138.2c-12,23.9-33.7,38.2-61.1,38.7c-10.4,0.2-20.8-2.1-30.5-5.8
							c-18.8-7.2-37.3-15-55.7-22.6v0.2c-95.9-32.8-194.8-53.8-289.2-10.9c43-17.8,97-16.5,138.2,4.1c23.9,12,38.1,33.7,38.7,61.1
							c0.2,10.4-2.1,20.8-5.8,30.5c-7.2,18.8-15,37.3-22.6,55.7h0.2c-32.8,95.9-53.8,194.7-10.9,289.2c-17.9-42.9-16.5-97,4.1-138.2
							c12-23.9,33.7-38.1,61.1-38.7c10.4-0.2,20.7,2.1,30.5,5.8c18.8,7.2,37.3,15,55.7,22.6v-0.2c95.9,32.8,194.7,53.8,289.2,10.9
							C646.3,469.3,592.2,467.9,551,447.3z"/>
					</g>
				</g>
			</g>
		</g>
	</g>
	<g class="st4">
		<g>
			<g>
				<g>
					<g>
						<path class="st6" d="M547.3,1.7c1.5,3,2.9,6,4.1,9.1L547.3,1.7z"/>
					</g>
				</g>
			</g>
		</g>
	</g>
	<g class="st4">
		<g>
			<g>
				<g>
					<g>
						<path class="st6" d="M110.8,148.6c-3.1,1.3-6.1,2.6-9.1,4.1L110.8,148.6z"/>
					</g>
				</g>
			</g>
		</g>
	</g>
</g>
<g class="st1">
	<g class="st4">
		<g>
			<g>
				<g>
					<g>
						<path class="st6" d="M559.8,394.5c9.2-32.2,37.9-69.9,47.5-94.5c19.1-49,27.4-140.3,4.1-210.4c-17.2,50.6-71,63.8-116.9,50.6
							c-32.3-9.2-69.9-37.9-94.5-47.5c-49-19.1-140.3-27.4-210.5-4.1c50.6,17.2,63.8,71,50.6,116.9c-9.2,32.3-37.9,69.9-47.5,94.5
							c-19.1,49-27.4,140.4-4.1,210.5c17.2-50.6,71-63.8,116.9-50.6c32.2,9.2,69.9,37.9,94.5,47.5c49,19.1,140.4,27.4,210.5,4.1
							C559.8,494.2,546.7,440.4,559.8,394.5z"/>
					</g>
				</g>
			</g>
		</g>
	</g>
	<g class="st4">
		<g>
			<g>
				<g>
					<g>
						<path class="st6" d="M579.8,253.8c-16.3-29.3-22.6-76.2-33.2-100.4C525.5,105.2,466.8,34.8,400.7,1.7
							c23.6,48-5.1,95.3-46.8,118.5c-29.3,16.3-76.2,22.6-100.4,33.2c-48.2,21.1-118.6,79.8-151.7,146c48-23.7,95.3,5.1,118.4,46.8
							c16.3,29.3,22.6,76.2,33.2,100.4c21.1,48.2,79.8,118.6,145.9,151.7c-23.6-48,5.1-95.3,46.8-118.5
							c29.3-16.3,76.2-22.6,100.4-33.2c48.2-21.1,118.6-79.9,151.7-145.9C650.3,324.3,603,295.6,579.8,253.8z"/>
					</g>
				</g>
			</g>
		</g>
	</g>
</g>
<path class="st19" d="M688,303.4L561.7,177.2c-9.4-9.4-22-15-35.3-15.6l-146.9-6.5l6.8-153.4L260,127.9c-9.4,9.4-15,22-15.6,35.3
	l-6.3,141.2L90,297.9l126.2,126.2c9.4,9.4,22,15,35.3,15.6l146.9,6.5l-6.8,153.4L518,473.4c9.4-9.4,15-22,15.6-35.3l6.3-141.2
	L688,303.4z"/>
</svg>
