<svg xmlns="http://www.w3.org/2000/svg" xmlns:xlink="http://www.w3.org/1999/xlink" viewBox="0 0 2000 1000" width="2000" height="1000" preserveAspectRatio="xMidYMid meet" style="width: 100%; height: 100%; transform: translate3d(0px, 0px, 0px); content-visibility: visible;"><defs><clipPath id="__lottie_element_14"><rect width="2000" height="1000" x="0" y="0"></rect></clipPath><clipPath id="__lottie_element_16"><path d="M0,0 L2000,0 L2000,2000 L0,2000z"></path></clipPath><clipPath id="__lottie_element_20"><path d="M0,0 L2000,0 L2000,991 L0,991z"></path></clipPath><clipPath id="__lottie_element_21"><path fill="#ffffff" clip-rule="nonzero" d=" M1056,139.5 C1056,139.5 624,139.5 624,139.5 C624,139.5 624,863.5 624,863.5 C624,863.5 1056,863.5 1056,863.5 C1056,863.5 1056,139.5 1056,139.5" fill-opacity="1"></path></clipPath><clipPath id="__lottie_element_24"><path d="M0,0 L2000,0 L2000,991 L0,991z"></path></clipPath><clipPath id="__lottie_element_25"><path fill="#ffffff" clip-rule="nonzero" d=" M1717,87.5 C1717,87.5 288,87.5 288,87.5 C288,87.5 288,867.5 288,867.5 C288,867.5 1717,867.5 1717,867.5 C1717,867.5 1717,87.5 1717,87.5" fill-opacity="1"></path></clipPath></defs><g clip-path="url(#__lottie_element_14)"><g clip-path="url(#__lottie_element_16)" transform="matrix(1.4160000085830688,0,0,1.4160000085830688,-416,-916)" opacity="1" style="display: block;"><g clip-path="url(#__lottie_element_20)" transform="matrix(1,0,0,1,0,504.5)" opacity="1" style="display: block;"><g class="2" clip-path="url(#__lottie_element_21)"><g transform="matrix(1,0,0,1,626.677978515625,149.4420166015625)" opacity="1" style="display: block;"><g opacity="1" transform="matrix(1,0,0,1,210.58200073242188,345.75799560546875)"><path fill="rgb(255,255,255)" fill-opacity="1" d=" M210.33200073242188,-345.50799560546875 C210.33200073242188,-345.50799560546875 -97.86599731445312,345.50799560546875 -97.86599731445312,345.50799560546875 C-97.86599731445312,345.50799560546875 -210.33200073242188,345.50799560546875 -210.33200073242188,345.50799560546875 C-210.33200073242188,345.50799560546875 97.86799621582031,-345.50799560546875 97.86799621582031,-345.50799560546875 C97.86799621582031,-345.50799560546875 210.33200073242188,-345.50799560546875 210.33200073242188,-345.50799560546875z"></path></g></g></g></g><g clip-path="url(#__lottie_element_24)" transform="matrix(1,0,0,1,0,504.5)" opacity="1" style="display: block;"><g class="1" clip-path="url(#__lottie_element_25)"><g transform="matrix(1,0,0,1,299.01300048828125,149.4420166015625)" opacity="1" style="display: block;"><g opacity="1" transform="matrix(1,0,0,1,700.9990234375,345.7569885253906)"><path fill="rgb(255,255,255)" fill-opacity="1" d=" M-700.7490234375,-52.446998596191406 C-700.7490234375,-52.446998596191406 377.4119873046875,-52.446998596191406 377.4119873046875,-52.446998596191406 C295.9429931640625,-144.0050048828125 237.90499877929688,-241.6929931640625 203.3040008544922,-345.50799560546875 C203.3040008544922,-345.50799560546875 280.0840148925781,-345.50799560546875 280.0840148925781,-345.50799560546875 C381.010986328125,-198.43699645996094 521.2349853515625,-92.0979995727539 700.7490234375,-26.493000030517578 C700.7490234375,-26.493000030517578 700.7490234375,26.496000289916992 700.7490234375,26.496000289916992 C521.2349853515625,92.10099792480469 381.010986328125,198.43899536132812 280.0840148925781,345.50799560546875 C280.0840148925781,345.50799560546875 203.3040008544922,345.50799560546875 203.3040008544922,345.50799560546875 C237.90499877929688,242.4149932861328 295.9429931640625,145.08999633789062 377.4119873046875,53.53099822998047 C377.4119873046875,53.53099822998047 -700.7490234375,53.53099822998047 -700.7490234375,53.53099822998047 C-700.7490234375,53.53099822998047 -700.7490234375,-52.446998596191406 -700.7490234375,-52.446998596191406z"></path></g></g></g></g></g></g></svg>