<?xml version="1.0" encoding="utf-8"?>
<!-- Generator: Adobe Illustrator 28.2.0, SVG Export Plug-In . SVG Version: 6.00 Build 0)  -->
<svg version="1.1" id="레이어_1" xmlns="http://www.w3.org/2000/svg" xmlns:xlink="http://www.w3.org/1999/xlink" x="0px"
	 y="0px" viewBox="0 0 800 600" style="enable-background:new 0 0 800 600;" xml:space="preserve">
<style type="text/css">
	.st0{fill:#FFFFFF;}
	.st1{fill:#2A2A2A;}
	.st2{fill:#DF6417;}
	.st3{clip-path:url(#SVGID_00000070804442058861015250000015769401836979907991_);}
	.st4{clip-path:url(#SVGID_00000070804442058861015250000015769401836979907991_);fill:#2A2A2A;}
	
		.st5{clip-path:url(#SVGID_00000070804442058861015250000015769401836979907991_);fill:#FFFFFF;stroke:#000000;stroke-width:2;stroke-linecap:round;stroke-linejoin:round;stroke-miterlimit:10;}
	.st6{clip-path:url(#SVGID_00000070804442058861015250000015769401836979907991_);fill:#FFFFFF;}
</style>
<path class="st0" d="M402.5,0l31.4,210.4L650,39.6l6.6,7L486.2,262.8l210.4,31.4v9.1l-208.8,32.2l168.8,215.4l-6.6,7L435.5,387
	l-32.2,209.6h-9.5L362.8,387L145.4,557.9l-5.8-7l170-217L100,302.5v-8.3L307.6,262L139.6,46.6l5.8-7l215.8,170L393,0H402.5z"/>
<g>
	<path class="st1" d="M400,416c-64,0-116-52-116-116s52-116,116-116s116,52,116,116S464,416,400,416z M400,187.6
		c-62,0-112.4,50.4-112.4,112.4S338,412.4,400,412.4S512.4,362,512.4,300S462,187.6,400,187.6z"/>
	<circle class="st2" cx="400" cy="300" r="112.4"/>
	<g>
		<defs>
			<circle id="SVGID_1_" cx="400" cy="300" r="112.4"/>
		</defs>
		<clipPath id="SVGID_00000004507271347580712930000004319378948430113720_">
			<use xlink:href="#SVGID_1_"  style="overflow:visible;"/>
		</clipPath>
		<g style="clip-path:url(#SVGID_00000004507271347580712930000004319378948430113720_);">
			<path class="st0" d="M400,418.8"/>
			<path class="st0" d="M400,418.8h57.9l-11.4-19.6c-9-14-8.6-40.7-8.6-40.7c23.1,0.4,24.4-8.7,24.4-8.7c2.7,8.7,19.1,7.5,19.1,7.5
				c19.5,0,19.9-25.5,19.9-25.5c0-23-14.5-31.6-14.5-31.6c-2.4-60-31.4-71.8-31.4-71.8c-29.3-16.2-47.8-5.7-53.5-1.5h-3.7
				c-5.7-4.2-24.3-14.6-53.5,1.5c0,0-29,11.8-31.4,71.8c0,0-14.5,8.6-14.5,31.6c0,0,0.4,25.5,19.9,25.5c0,0,16.4,1.1,19.1-7.5
				c0,0,1.2,9.1,24.4,8.7c0,0,0.4,26.7-8.6,40.7l-11.4,19.6H400z"/>
			<path class="st1" d="M488.5,299.2c-2.6-58.5-30.1-71.5-32.4-72.5c-7.8-4.3-34.3-16.7-55.1-1.5c-0.3,0.1-0.6,0.1-1,0.2
				c0,0,0,0-0.1,0c0,0,0,0-0.1,0c-0.4,0-0.7-0.1-1-0.2c-20.8-15.2-47.3-2.8-55.1,1.5c-2.2,1-29.8,13.9-32.4,72.5
				c-3.2,2.3-14.6,11.8-14.6,32.6c0.2,9.4,4.9,27.2,21.6,27.2c0,0,0,0,0,0c0.6,0,13.9,0.9,19.2-5.6c0.6,0.7,1.4,1.5,2.5,2.3
				c4.3,3,11,4.5,20.1,4.5c-0.1,6.1-1,26.6-8.3,38l-11.4,19.6c-0.3,0.5-0.3,1.2,0,1.8s0.9,0.9,1.5,0.9H400h57.9
				c0.6,0,1.2-0.3,1.5-0.9s0.3-1.2,0-1.8L448,398.3c-7.3-11.4-8.2-31.9-8.3-38c9.1,0,15.8-1.5,20.1-4.5c1.1-0.8,1.9-1.5,2.5-2.3
				c5.3,6.5,18.6,5.6,19.2,5.6c0,0,0,0,0,0c16.7,0,21.4-17.8,21.6-27.2C503.1,311,491.8,301.5,488.5,299.2z M481.4,355.6
				c-4.3,0.3-15.6-0.3-17.4-6.3c0,0-0.6-1.3-0.4-3.2c0,0-1.2,9.5-25.6,10.6h-1.7l-0.1,1.7c0,1.1-0.3,27.4,8.8,41.6l9.8,16.9H400
				h-54.8l9.8-16.9c9.1-14.3,8.9-40.5,8.8-41.6l-0.1-1.7h-1.7c-24.4-1.1-25.6-10.6-25.6-10.6c0.2,1.9-0.4,3.2-0.4,3.2
				c-1.9,6-13.1,6.6-17.4,6.3c-17.5,0-18.2-22.8-18.2-23.7c0-21.6,13.1-29.8,13.6-30.1l0.8-0.5l0-1c2.3-58,30.1-70.2,30.3-70.3
				c0.1,0,0.1-0.1,0.2-0.1c7.2-4,32.4-15.9,51.6-1.7l2.9,2.5l2.9-2.5c19.3-14.3,44.4-2.3,51.6,1.7c0.1,0,0.1,0.1,0.2,0.1
				c0.3,0.1,28,12.3,30.3,70.3l0,1l0.8,0.5c0.6,0.3,13.6,8.5,13.6,30.1C499.5,332.8,498.9,355.6,481.4,355.6z"/>
		</g>
		<path style="clip-path:url(#SVGID_00000004507271347580712930000004319378948430113720_);fill:#2A2A2A;" d="M331.4,342.5
			c0,0,6.8,3.6-2.5,8.5c0,0-18.4,7.7-24.5-9.1c0,0-5.1-14.9,6.1-32.9c0.1-0.2,0.2-0.3,0.3-0.4c0.8-0.9,3.9-4.4,5-3.4
			c0,0,0.8,0.4,0.5,2.1C316.2,307.1,316.6,333,331.4,342.5z"/>
		
			<path style="clip-path:url(#SVGID_00000004507271347580712930000004319378948430113720_);fill:#FFFFFF;stroke:#000000;stroke-width:2;stroke-linecap:round;stroke-linejoin:round;stroke-miterlimit:10;" d="
			M398.3,418.8"/>
		<path style="clip-path:url(#SVGID_00000004507271347580712930000004319378948430113720_);fill:#2A2A2A;" d="M375.5,245.2
			c0,0,20.5,6.1,8.2,23.1c0,0-12.5,21.7-40.7,21.7c0,0-13.1,1-13.1-18.6c0,0-3.5-33.5,16-32.4C345.9,239,361,239.5,375.5,245.2z"/>
		
			<circle style="clip-path:url(#SVGID_00000004507271347580712930000004319378948430113720_);fill:#FFFFFF;" cx="366.2" cy="260.7" r="6.5"/>
		<path style="clip-path:url(#SVGID_00000004507271347580712930000004319378948430113720_);fill:#2A2A2A;" d="M424.5,245.2
			c0,0-20.5,6.1-8.2,23.1c0,0,12.5,21.7,40.7,21.7c0,0,13.1,1,13.1-18.6c0,0,3.5-33.5-16-32.4C454.1,239,439,239.5,424.5,245.2z"/>
		
			<circle style="clip-path:url(#SVGID_00000004507271347580712930000004319378948430113720_);fill:#FFFFFF;" cx="433.8" cy="260.7" r="6.5"/>
		<path style="clip-path:url(#SVGID_00000004507271347580712930000004319378948430113720_);fill:#2A2A2A;" d="M399.9,276.7
			c0,0,6.5-0.8,6.5-4.9c0,0,0.7-2.8-6.5-2.6c-7.3-0.2-6.5,2.6-6.5,2.6C393.3,275.9,399.9,276.7,399.9,276.7z"/>
		<path style="clip-path:url(#SVGID_00000004507271347580712930000004319378948430113720_);fill:#2A2A2A;" d="M399.9,285.7
			c-13.3,0-13.7-4.4-13.7-5c0-0.5,0.4-0.9,0.9-0.9c0.5,0,0.9,0.4,0.9,0.8c0.1,0.9,2.3,3.1,11.1,3.2v-7.3c0-0.5,0.4-0.9,0.9-0.9
			c0.5,0,0.9,0.4,0.9,0.9v8.1C400.7,285.3,400.3,285.7,399.9,285.7z M387.9,280.8L387.9,280.8L387.9,280.8z"/>
		<path style="clip-path:url(#SVGID_00000004507271347580712930000004319378948430113720_);fill:#2A2A2A;" d="M399.9,285.7
			c-0.5,0-0.9-0.4-0.9-0.9v-8.1c0-0.5,0.4-0.9,0.9-0.9c0.5,0,0.9,0.4,0.9,0.9v7.3c8.8-0.1,11-2.4,11.1-3.2c0-0.5,0.4-0.9,0.9-0.9
			c0.5,0,0.9,0.4,0.9,0.9C413.6,281.3,413.2,285.7,399.9,285.7z"/>
		<path style="clip-path:url(#SVGID_00000004507271347580712930000004319378948430113720_);fill:#2A2A2A;" d="M399.9,360.6
			c11.3,0,11.3-3,11.3-3c0-0.9-3.2,0.4-3.2,0.4s-2.4,0.8-8.1,0.8c-5.6,0-8-0.9-8-0.9s-3.3-1.2-3.3-0.3
			C388.6,357.5,388.5,360.6,399.9,360.6z"/>
		<path style="clip-path:url(#SVGID_00000004507271347580712930000004319378948430113720_);fill:#2A2A2A;" d="M468.3,342.5
			c0,0-6.8,3.6,2.5,8.5c0,0,18.4,7.7,24.5-9.1c0,0,5.1-14.9-6.1-32.9c-0.1-0.2-0.2-0.3-0.3-0.4c-0.8-0.9-3.9-4.4-5-3.4
			c0,0-0.8,0.4-0.5,2.1C483.5,307.1,483.1,333,468.3,342.5z"/>
	</g>
</g>
</svg>
