<svg width="100%" height="100%" viewBox="0 0 29 94" fill="none" xmlns="http://www.w3.org/2000/svg">
<path d="M28.2227 93.7988H25.5371C22.8678 93.7988 20.5566 93.5547 18.6035 93.0664C16.6829 92.6107 14.9902 91.4388 13.5254 89.5508C12.0605 87.6628 11.1328 85.4167 10.7422 82.8125C10.3841 80.2083 10.1725 75.8789 10.1074 69.8242C10.1074 65.5924 9.92839 62.2396 9.57031 59.7656C9.24479 57.2917 8.34961 55.2083 6.88477 53.5156C5.41992 51.8229 3.125 50.944 0 50.8789V42.9199C3.125 42.8548 5.41992 41.9922 6.88477 40.332C8.34961 38.6393 9.24479 36.556 9.57031 34.082C9.92839 31.6081 10.1074 28.2552 10.1074 24.0234C10.1725 18.0013 10.3841 13.7044 10.7422 11.1328C11.1003 8.52865 11.9954 6.26628 13.4277 4.3457C14.8926 2.42513 16.6016 1.2207 18.5547 0.732422C20.5078 0.244141 22.8353 0 25.5371 0H28.2227V7.61719H26.709C23.3561 7.61719 21.11 8.23568 19.9707 9.47266C18.8639 10.6771 18.3105 13.4277 18.3105 17.7246C18.3105 24.8535 18.1478 30.013 17.8223 33.2031C17.5293 36.3932 16.6667 39.0788 15.2344 41.2598C13.8346 43.4082 11.4583 45.2962 8.10547 46.9238C11.4258 48.2585 13.9486 50.4232 15.6738 53.418C17.4316 56.4128 18.3105 61.6048 18.3105 68.9941C18.3105 75.7975 18.457 79.9642 18.75 81.4941C19.043 83.0241 19.5964 84.1797 20.4102 84.9609C21.2565 85.7747 23.3561 86.1816 26.709 86.1816H28.2227V93.7988Z" fill="white"></path>
</svg>