<svg width="100%" height="100%" viewBox="0 0 37 35" fill="none" xmlns="http://www.w3.org/2000/svg">
<path d="M36.2568 16.5305C31.9958 17.8554 27.5199 18.8401 22.8291 19.4846C24.512 20.9885 27.6273 24.3723 32.1748 29.636L25.6758 34.2551C23.5632 31.4264 21.1104 27.5771 18.3174 22.7073C15.7035 27.6845 13.3581 31.5338 11.2812 34.2551L4.99707 29.636C10.2607 23.3339 13.2327 19.9501 13.9131 19.4846C8.72103 18.4462 4.33464 17.4615 0.753906 16.5305L3.27832 8.84985C9.79525 11.2489 13.931 13.0035 15.6855 14.1135C14.9694 7.91886 14.6113 3.44295 14.6113 0.685791H22.292C22.292 3.98006 21.9697 8.00838 21.3252 12.7708C21.1462 13.0214 21.0566 13.4332 21.0566 14.0061C24.4583 12.3232 28.6836 10.6044 33.7324 8.84985L36.2568 16.5305Z" fill="white"></path>
</svg>