<?xml version="1.0" encoding="utf-8"?>
<!-- Generator: Adobe Illustrator 28.2.0, SVG Export Plug-In . SVG Version: 6.00 Build 0)  -->
<svg version="1.1" id="레이어_1" xmlns="http://www.w3.org/2000/svg" xmlns:xlink="http://www.w3.org/1999/xlink" x="0px"
	 y="0px" viewBox="0 0 1920 1080" style="enable-background:new 0 0 1920 1080;" xml:space="preserve">
<style type="text/css">
	.st0{fill:#1F70C1;}
</style>
<g>
	<g>
		<polygon id="Rectangle-path" class="st0" points="-2,870.8 371.7,870.8 371.7,924.3 -2,924.3 		"/>
		<polygon id="Rectangle-path_1_" class="st0" points="-2,768.2 371.7,768.2 371.7,821.9 -2,821.9 		"/>
		<polygon id="Rectangle-path_2_" class="st0" points="104.6,665.8 264.9,665.8 264.9,719.5 104.6,719.5 		"/>
		<polygon id="Rectangle-path_3_" class="st0" points="104.6,563.4 264.9,563.4 264.9,617.1 104.6,617.1 		"/>
		<polygon id="Rectangle-path_4_" class="st0" points="104.6,460.9 264.9,460.9 264.9,514.6 104.6,514.6 		"/>
		<polygon id="Rectangle-path_5_" class="st0" points="104.6,358.3 264.9,358.3 264.9,412 104.6,412 		"/>
		<rect id="Rectangle-path_6_" x="-2" y="255.9" class="st0" width="373.7" height="53.7"/>
		<rect id="Rectangle-path_7_" x="-2" y="153.5" class="st0" width="373.7" height="53.7"/>
	</g>
	<g>
		<path id="Shape_16_" class="st0" d="M425,821.9h574.7c9.7-16.6,16.9-34.6,21.3-53.7H425V821.9z"/>
		<path id="Shape_17_" class="st0" d="M955,563.4H531.8v53.7h467.9C987.6,596.5,972.5,578.4,955,563.4z"/>
		<path id="Shape_18_" class="st0" d="M531.8,460.9v53.7H955c17.9-15,32.9-33.1,44.7-53.7L531.8,460.9L531.8,460.9z"/>
		<path id="Shape_19_" class="st0" d="M999.7,255.9H425v53.7h596.1C1016.1,290.6,1008.9,272.5,999.7,255.9z"/>
		<path id="Shape_20_" class="st0" d="M823.1,153.5H425v53.7h535.3C924.5,174.1,876,153.5,823.1,153.5z"/>
		<rect id="Rectangle-path_8_" x="531.8" y="358.3" class="st0" width="160.1" height="53.7"/>
		<path id="Shape_21_" class="st0" d="M852.2,412h167.5c4.8-17.1,7.2-35.2,7.2-53.7H852.2L852.2,412L852.2,412z"/>
		<polygon id="Rectangle-path_9_" class="st0" points="531.8,665.8 691.9,665.8 691.9,719.5 531.8,719.5 		"/>
		<path id="Shape_22_" class="st0" d="M852.2,665.8v53.7H1027c0-18.5-2.5-36.6-7.2-53.7H852.2z"/>
		<path id="Shape_23_" class="st0" d="M425,923.9l398.1,0.6c53.3,0,101.5-20.6,137.4-53.7H425V923.9z"/>
	</g>
	<g>
		<polygon id="Rectangle-path_10_" class="st0" points="1065.8,870.8 1332.7,870.8 1332.7,924.3 1065.8,924.3 		"/>
		<polygon id="Rectangle-path_11_" class="st0" points="1065.8,768.2 1332.7,768.2 1332.7,821.9 1065.8,821.9 		"/>
		<polygon id="Rectangle-path_12_" class="st0" points="1172.4,665.8 1332.7,665.8 1332.7,719.5 1172.4,719.5 		"/>
		<polygon id="Rectangle-path_13_" class="st0" points="1172.4,563.4 1332.7,563.4 1332.7,617.1 1172.4,617.1 		"/>
		<polygon id="Shape_24_" class="st0" points="1406.9,255.9 1065.8,255.9 1065.8,309.6 1425.4,309.6 		"/>
		<polygon id="Shape_25_" class="st0" points="1371.5,153.5 1065.8,153.5 1065.8,207.2 1390,207.2 		"/>
		<polygon id="Rectangle-path_14_" class="st0" points="1652.9,870.8 1920,870.8 1920,924.3 1652.9,924.3 		"/>
		<polygon id="Rectangle-path_15_" class="st0" points="1652.9,768.2 1920,768.2 1920,821.9 1652.9,821.9 		"/>
		<polygon id="Rectangle-path_16_" class="st0" points="1652.9,665.8 1813.2,665.8 1813.2,719.5 1652.9,719.5 		"/>
		<polygon id="Rectangle-path_17_" class="st0" points="1652.9,563.4 1813.2,563.4 1813.2,617.1 1652.9,617.1 		"/>
		<polygon id="Shape_26_" class="st0" points="1652.9,514.6 1813.2,514.6 1813.2,460.9 1652.9,460.9 1652.9,460.9 1507.8,460.9 
			1492.8,504.4 1477.8,460.9 1332.7,460.9 1332.7,460.9 1172.4,460.9 1172.4,514.6 1332.7,514.6 1332.7,465.3 1349.6,514.6 
			1636,514.6 1652.9,465.3 		"/>
		<polygon id="Shape_27_" class="st0" points="1813.2,358.3 1543.3,358.3 1524.8,412 1813.2,412 		"/>
		<polygon id="Shape_28_" class="st0" points="1614.3,153.5 1595.8,207.2 1920,207.2 1920,153.5 		"/>
		<polygon id="Shape_29_" class="st0" points="1492.8,923.9 1511.3,870.8 1474.3,870.8 		"/>
		<polygon id="Shape_30_" class="st0" points="1457.4,821.9 1528.2,821.9 1547.3,768.2 1438.5,768.2 		"/>
		<polygon id="Shape_31_" class="st0" points="1421.4,719.5 1564.2,719.5 1583,665.8 1402.6,665.8 		"/>
		<polygon id="Shape_32_" class="st0" points="1385.6,617.1 1600.2,617.1 1618.4,563.4 1367.2,563.4 		"/>
		<polygon id="Shape_33_" class="st0" points="1172.4,412 1460.8,412 1442.4,358.3 1172.4,358.3 		"/>
		<polygon id="Shape_34_" class="st0" points="1560.4,309.6 1920,309.6 1920,255.9 1578.7,255.9 		"/>
	</g>
</g>
</svg>
