<svg width="100%" height="100%" viewBox="0 0 40 40" fill="none" xmlns="http://www.w3.org/2000/svg">
<path d="M30.625 0H9.375C4.19733 0 0 4.19733 0 9.375V30.625C0 35.8027 4.19733 40 9.375 40H30.625C35.8027 40 40 35.8027 40 30.625V9.375C40 4.19733 35.8027 0 30.625 0Z" fill="#330000"/>
<path d="M19.3333 23.8019H13.1333L11.8666 27.7187C11.8333 27.8687 11.7001 27.9687 11.5501 27.9519H8.41663C8.23335 27.9519 8.18335 27.8519 8.23335 27.6519L13.6001 12.2019C13.6501 12.0354 13.7001 11.8519 13.7666 11.6519C13.8333 11.3019 13.8666 10.9354 13.8666 10.5687C13.8501 10.4854 13.9166 10.4019 14.0001 10.3854H18.3166C18.4501 10.3854 18.5166 10.4354 18.5333 10.5187L24.6166 27.6854C24.6666 27.8687 24.6166 27.9519 24.4501 27.9519H20.9666C20.8501 27.9687 20.7333 27.8854 20.7001 27.7687L19.3333 23.8019ZM14.1001 20.4187H18.3333C18.2333 20.0687 18.1001 19.6519 17.9501 19.2187C17.8001 18.7687 17.6501 18.2854 17.5001 17.7854C17.3333 17.2687 17.1833 16.7687 17.0166 16.2519C16.8501 15.7354 16.7001 15.2519 16.5666 14.7687C16.4333 14.3021 16.3166 13.8687 16.2001 13.4687H16.1666C16.0166 14.1854 15.8333 14.9021 15.6001 15.6187C15.3501 16.4187 15.1001 17.2519 14.8333 18.0854C14.6181 18.872 14.3735 19.6503 14.1001 20.4187ZM28.3333 13.3019C27.7833 13.3187 27.2501 13.1019 26.8501 12.7187C26.4668 12.3019 26.2668 11.7519 26.2833 11.1854C26.2668 10.6187 26.4833 10.0854 26.8833 9.70193C27.2833 9.31865 27.8168 9.11865 28.3668 9.11865C29.0168 9.11865 29.5168 9.31865 29.8833 9.70193C30.2527 10.106 30.45 10.6382 30.4333 11.1854C30.4501 11.7519 30.2501 12.3019 29.8501 12.7187C29.4668 13.1187 28.9001 13.3354 28.3333 13.3019ZM26.4668 27.7687V14.9354C26.4668 14.7687 26.5333 14.7019 26.6833 14.7019H29.9833C30.1333 14.7019 30.2001 14.7854 30.2001 14.9354V27.7687C30.2001 27.9519 30.1333 28.0354 29.9833 28.0354H26.7168C26.5501 28.0354 26.4668 27.9354 26.4668 27.7687Z" fill="#FF9A00"/>
</svg>
