<svg width="100%" height="100%" viewBox="0 0 40 40" fill="none" xmlns="http://www.w3.org/2000/svg">
<path d="M30.625 0H9.375C4.19733 0 0 4.19733 0 9.375V30.625C0 35.8027 4.19733 40 9.375 40H30.625C35.8027 40 40 35.8027 40 30.625V9.375C40 4.19733 35.8027 0 30.625 0Z" fill="#001E36"/>
<path d="M9 27.8188V10.6688C9 10.5521 9.05 10.4855 9.16672 10.4855C9.45 10.4855 9.71672 10.4855 10.1 10.4688C10.5 10.4521 10.9167 10.4521 11.3667 10.4355C11.8167 10.4188 12.3 10.4188 12.8167 10.4021C13.3333 10.3855 13.8333 10.3855 14.3333 10.3855C15.7 10.3855 16.8333 10.5521 17.7667 10.9021C18.6034 11.1862 19.3663 11.6531 20 12.2688C20.537 12.8076 20.952 13.4556 21.2167 14.1688C21.4667 14.8688 21.6 15.5855 21.6 16.3355C21.6 17.7688 21.2667 18.9521 20.6 19.8855C19.9333 20.8188 19 21.5188 17.9167 21.9188C16.7833 22.3355 15.5333 22.4855 14.1667 22.4855C13.7667 22.4855 13.5 22.4855 13.3333 22.4688C13.1667 22.4521 12.9333 22.4521 12.6167 22.4521V27.8021C12.6333 27.9188 12.55 28.0188 12.4333 28.0355H9.2C9.06672 28.0355 9 27.9688 9 27.8188ZM12.6333 13.7021V19.3021C12.8667 19.3188 13.0833 19.3355 13.2833 19.3355H14.1667C14.8167 19.3355 15.4667 19.2355 16.0833 19.0355C16.6167 18.8855 17.0833 18.5688 17.45 18.1521C17.8 17.7355 17.9667 17.1688 17.9667 16.4355C17.9824 15.9146 17.8494 15.4001 17.5833 14.9521C17.3 14.5188 16.9 14.1855 16.4167 14.0021C15.8 13.7521 15.1333 13.6521 14.45 13.6688C14.0167 13.6688 13.6333 13.6688 13.3167 13.6855C12.9833 13.6688 12.75 13.6855 12.6333 13.7021ZM32 18.2855C31.5 18.0188 30.9667 17.8355 30.4 17.7188C29.7833 17.5855 29.1667 17.5021 28.5333 17.5021C28.2 17.4855 27.85 17.5355 27.5333 17.6188C27.3167 17.6688 27.1333 17.7855 27.0167 17.9521C26.9333 18.0855 26.8833 18.2521 26.8833 18.4021C26.8833 18.5521 26.95 18.7021 27.05 18.8355C27.2 19.0188 27.4 19.1688 27.6167 19.2855C28.0031 19.4856 28.3979 19.6691 28.8 19.8355C29.7 20.1355 30.5667 20.5521 31.3667 21.0521C31.9167 21.4021 32.3667 21.8688 32.6833 22.4355C32.95 22.9688 33.0833 23.5521 33.0667 24.1521C33.0833 24.9355 32.85 25.7188 32.4167 26.3688C31.9518 27.0341 31.3031 27.5495 30.55 27.8521C29.7333 28.2021 28.7333 28.3855 27.5333 28.3855C26.7667 28.3855 26.0167 28.3188 25.2667 28.1688C24.6789 28.0672 24.1072 27.8879 23.5667 27.6355C23.45 27.5688 23.3667 27.4521 23.3833 27.3188V24.4188C23.3833 24.3688 23.4 24.3021 23.45 24.2688C23.5 24.2355 23.55 24.2521 23.6 24.2855C24.25 24.6688 24.9333 24.9355 25.6667 25.1021C26.3 25.2688 26.9667 25.3521 27.6333 25.3521C28.2667 25.3521 28.7167 25.2688 29.0167 25.1188C29.2833 25.0021 29.4667 24.7188 29.4667 24.4188C29.4667 24.1855 29.3333 23.9688 29.0667 23.7521C28.8 23.5355 28.25 23.2855 27.4333 22.9688C26.5955 22.6736 25.7999 22.2702 25.0667 21.7688C24.5445 21.3965 24.1117 20.9126 23.8 20.3521C23.5333 19.8188 23.4 19.2355 23.4167 18.6521C23.4167 17.9355 23.6167 17.2521 23.9833 16.6355C24.4 15.9688 25.0167 15.4355 25.7333 15.1021C26.5167 14.7021 27.5 14.5188 28.6833 14.5188C29.3667 14.5188 30.0667 14.5688 30.75 14.6688C31.25 14.7355 31.7333 14.8688 32.1833 15.0521C32.25 15.0688 32.3167 15.1355 32.35 15.2021C32.3667 15.2688 32.3833 15.3355 32.3833 15.4021V18.1188C32.3833 18.1855 32.35 18.2521 32.3 18.2855C32.15 18.3188 32.0667 18.3188 32 18.2855Z" fill="#31A8FF"/>
</svg>
