<svg width="100%" height="100%" viewBox="0 0 40 40" fill="none" xmlns="http://www.w3.org/2000/svg">
<path d="M30.625 0H9.375C4.19733 0 0 4.19733 0 9.375V30.625C0 35.8027 4.19733 40 9.375 40H30.625C35.8027 40 40 35.8027 40 30.625V9.375C40 4.19733 35.8027 0 30.625 0Z" fill="#CD6799"/>
<mask id="mask0_115_105" style="mask-type:luminance" maskUnits="userSpaceOnUse" x="4" y="8" width="32" height="24">
<path d="M4.375 8.28125H35.625V31.7045H4.375V8.28125Z" fill="white"/>
</mask>
<g mask="url(#mask0_115_105)">
<path d="M31.2667 21.7443C30.177 21.7499 29.2301 22.0124 28.4372 22.4002C28.1462 21.8241 27.8553 21.3107 27.8039 20.9341C27.7469 20.4949 27.6784 20.2268 27.7469 19.7019C27.8153 19.1771 28.1234 18.4299 28.1176 18.3729C28.112 18.3157 28.0492 18.0477 27.4217 18.0419C26.7942 18.0363 26.2523 18.1618 26.1895 18.3273C26.1267 18.4926 26.007 18.8691 25.9272 19.2571C25.8187 19.8276 24.672 21.8641 24.0161 22.9309C23.805 22.5144 23.6225 22.1493 23.5825 21.8584C23.5254 21.4191 23.457 21.151 23.5254 20.6262C23.5939 20.1013 23.902 19.354 23.8962 19.2969C23.8906 19.2399 23.8278 18.9718 23.2003 18.9662C22.5728 18.9604 22.0308 19.0858 21.9681 19.2513C21.9053 19.4168 21.8369 19.8048 21.7056 20.1812C21.5745 20.5577 20.0514 23.9577 19.652 24.8362C19.4906 25.1917 19.3214 25.5435 19.1444 25.8915C19.1444 25.8915 19.1386 25.9087 19.1215 25.9371C19.0659 26.0462 19.0088 26.1546 18.9503 26.2623V26.268C18.8648 26.4221 18.7734 26.5646 18.7278 26.5646C18.6936 26.5646 18.6309 26.154 18.7392 25.5949C18.9675 24.414 19.5094 22.5771 19.5037 22.5144C19.5037 22.4802 19.6064 22.1607 19.15 21.9952C18.705 21.8298 18.5453 22.1037 18.5053 22.1037C18.4654 22.1037 18.4369 22.2007 18.4369 22.2007C18.4369 22.2007 18.9333 20.1355 17.49 20.1355C16.5886 20.1355 15.345 21.1224 14.729 22.0124C14.0286 22.3935 13.3288 22.7757 12.6295 23.159C12.2931 23.3473 11.9451 23.5355 11.6198 23.7124C11.597 23.6896 11.5742 23.661 11.5514 23.6382C9.80576 21.7727 6.57701 20.4551 6.71388 17.9507C6.76529 17.0379 7.07904 14.6419 12.9148 11.7326C17.7181 9.36522 21.5403 10.0212 22.202 11.4758C23.1489 13.5524 20.154 17.4087 15.1911 17.9677C13.297 18.1788 12.3045 17.4487 12.0536 17.1749C11.7911 16.8896 11.7511 16.8726 11.654 16.9296C11.4944 17.0151 11.597 17.2718 11.654 17.4201C11.8025 17.808 12.4128 18.4926 13.4453 18.8291C14.3581 19.1258 16.5772 19.2913 19.264 18.253C22.2704 17.0893 24.6208 13.8546 23.9304 11.1451C23.2403 8.39538 18.6765 7.48835 14.3581 9.02288C11.7909 9.93569 9.00716 11.3732 7.00482 13.2443C4.62591 15.4693 4.24951 17.403 4.40357 18.213C4.95685 21.0882 8.92154 22.9593 10.5075 24.3455C10.4276 24.3912 10.3534 24.4312 10.2908 24.4654C9.49779 24.859 6.47435 26.4391 5.72123 28.1107C4.8656 30.0046 5.85826 31.3623 6.5142 31.5448C8.55076 32.1096 10.6444 31.0941 11.7683 29.4169C12.892 27.7398 12.7551 25.5607 12.2359 24.5624C12.2304 24.5498 12.2226 24.5382 12.2131 24.5282C12.4186 24.4083 12.6295 24.2829 12.835 24.163C13.2125 23.9399 13.5948 23.725 13.9815 23.5183C13.7876 24.049 13.645 24.6821 13.5765 25.5949C13.4911 26.6674 13.9303 28.0593 14.5064 28.6069C14.7631 28.8465 15.0654 28.8523 15.2595 28.8523C15.9326 28.8523 16.235 28.2932 16.5715 27.6315C16.9822 26.8213 17.3531 25.8801 17.3531 25.8801C17.3531 25.8801 16.8909 28.4244 18.1459 28.4244C18.6023 28.4244 19.0644 27.8312 19.2698 27.5288V27.5344C19.2698 27.5344 19.2812 27.5174 19.304 27.4774C19.3497 27.4032 19.3781 27.3576 19.3781 27.3576V27.3462C19.5608 27.0268 19.9714 26.3023 20.5819 25.0985C21.369 23.5469 22.1278 21.6074 22.1278 21.6074C22.1278 21.6074 22.1962 22.0808 22.4301 22.868C22.567 23.3302 22.8523 23.8379 23.0804 24.3285C22.8979 24.5852 22.7839 24.7277 22.7839 24.7277L22.7895 24.7335C22.6412 24.9274 22.4815 25.1385 22.3047 25.3438C21.6828 26.0855 20.9412 26.9355 20.8386 27.1808C20.7187 27.4718 20.7473 27.6827 20.9754 27.854C21.1409 27.9794 21.4375 27.9965 21.7398 27.9794C22.2989 27.9394 22.6926 27.8026 22.8865 27.7169C23.1889 27.6087 23.5426 27.4432 23.8734 27.1979C24.4839 26.7473 24.8547 26.1026 24.8204 25.2526C24.8033 24.7848 24.6492 24.3171 24.4611 23.8777C24.5181 23.7979 24.5694 23.718 24.6264 23.6382C25.5906 22.2291 26.3378 20.6832 26.3378 20.6832C26.3378 20.6832 26.4062 21.1566 26.6401 21.944C26.7542 22.3432 26.9881 22.7768 27.1936 23.199C26.2865 23.9349 25.7275 24.7905 25.5278 25.3496C25.1684 26.3879 25.4479 26.8555 25.9784 26.964C26.2181 27.0154 26.5603 26.9013 26.8114 26.7929C27.1308 26.6902 27.5073 26.5134 27.8667 26.2509C28.477 25.8002 29.0647 25.1727 29.0304 24.3227C29.0133 23.9349 28.9106 23.5526 28.7679 23.1818C29.5381 22.8624 30.5308 22.6855 31.7972 22.8338C34.5126 23.1533 35.0489 24.8476 34.9461 25.5607C34.8434 26.2737 34.2729 26.6616 34.0847 26.7815C33.8965 26.9013 33.8337 26.9412 33.8509 27.0268C33.8737 27.1523 33.965 27.1465 34.1247 27.1237C34.3472 27.0838 35.5508 26.5476 35.6022 25.2355C35.6878 23.5583 34.0904 21.7271 31.2667 21.7443ZM10.3192 28.8066C9.41795 29.7877 8.16294 30.1587 7.62091 29.8449C7.03904 29.5082 7.26716 28.0593 8.37404 27.021C9.04701 26.3879 9.9142 25.8002 10.4903 25.4408C10.6215 25.361 10.8154 25.2469 11.0494 25.1043C11.0894 25.0815 11.1122 25.0701 11.1122 25.0701L11.249 24.9844C11.654 26.4677 11.2661 27.7741 10.3192 28.8066ZM16.8797 24.3455C16.5659 25.1101 15.91 27.0666 15.5106 26.9584C15.1684 26.8669 14.9573 25.3838 15.4422 23.9177C15.6875 23.1818 16.2065 22.3033 16.5089 21.961C16.9995 21.4133 17.5414 21.2308 17.6726 21.4533C17.8381 21.7443 17.0737 23.8663 16.8797 24.3455ZM22.2934 26.9355C22.1622 27.004 22.0367 27.0496 21.9797 27.0154C21.9397 26.9926 22.0367 26.9013 22.0367 26.9013C22.0367 26.9013 22.7156 26.171 22.9837 25.8402C23.1376 25.6462 23.3203 25.418 23.5142 25.1613V25.2355C23.5142 26.1084 22.67 26.6958 22.2934 26.9355ZM26.4692 25.9827C26.3722 25.9143 26.3894 25.6862 26.7145 24.973C26.84 24.6935 27.1367 24.2259 27.6444 23.7751C27.7014 23.9577 27.7414 24.1344 27.7356 24.2999C27.73 25.401 26.9426 25.8116 26.4692 25.9827Z" fill="white"/>
</g>
</svg>
