<svg width="100%" height="100%" viewBox="0 0 40 40" fill="none" xmlns="http://www.w3.org/2000/svg">
<path d="M30.625 0H9.375C4.19733 0 0 4.19733 0 9.375V30.625C0 35.8027 4.19733 40 9.375 40H30.625C35.8027 40 40 35.8027 40 30.625V9.375C40 4.19733 35.8027 0 30.625 0Z" fill="#007ACC"/>
<path d="M8.84566 20.1327L8.83301 21.7708H14.0393V36.5644H17.7221V21.7708H22.9283V20.1644C22.9283 19.2755 22.9094 18.5327 22.8839 18.5136C22.8649 18.4883 19.6966 18.4755 15.8554 18.4819L8.86488 18.501L8.84566 20.1327ZM32.2763 18.4544C33.2921 18.7085 34.0668 19.1593 34.7779 19.8957C35.1461 20.2894 35.6921 21.0069 35.7366 21.1783C35.7493 21.2291 34.0096 22.3974 32.9557 23.0513C32.9175 23.0768 32.765 22.9116 32.5936 22.6577C32.0794 21.9085 31.5397 21.5846 30.7143 21.5275C29.5016 21.4449 28.7207 22.0799 28.7271 23.1402C28.7271 23.4513 28.7714 23.6354 28.8985 23.8894C29.165 24.4418 29.6604 24.7719 31.216 25.4449C34.0794 26.6768 35.3047 27.4894 36.0668 28.6449C36.9175 29.9338 37.108 31.991 36.5302 33.5211C35.8954 35.1846 34.3207 36.3147 32.1047 36.6894C31.4191 36.81 29.7936 36.791 29.0572 36.6577C27.4508 36.3719 25.9271 35.5783 24.9874 34.5371C24.6191 34.1307 23.9016 33.0704 23.9461 32.9941C23.965 32.9688 24.1302 32.8672 24.3143 32.7593C24.4921 32.6577 25.1652 32.2704 25.8 31.9021L26.9493 31.2354L27.1905 31.591C27.5271 32.1052 28.2635 32.81 28.708 33.0449C29.9841 33.718 31.7366 33.6227 32.6 32.8482C32.9683 32.5116 33.1207 32.1624 33.1207 31.6482C33.1207 31.1846 33.0635 30.9814 32.8222 30.6322C32.5111 30.1879 31.8763 29.8132 30.073 29.0322C28.0096 28.1433 27.1207 27.591 26.308 26.7147C25.8382 26.2069 25.3936 25.3941 25.2096 24.7147C25.0572 24.1497 25.0191 22.7338 25.1397 22.1624C25.565 20.1688 27.0699 18.7783 29.2413 18.3655C29.9461 18.2322 31.5841 18.283 32.2763 18.4544Z" fill="white"/>
</svg>
