<svg width="40" height="40" viewBox="0 0 40 40" fill="none" xmlns="http://www.w3.org/2000/svg">
<path fill-rule="evenodd" clip-rule="evenodd" d="M5.55363 36.0013L2.34375 0H37.6152L34.4019 35.9954L19.9581 40L5.55363 36.0013Z" fill="#0071BC"/>
<path fill-rule="evenodd" clip-rule="evenodd" d="M20.009 36.937L31.6658 33.7302L34.3969 2.99805H20.009V36.937Z" fill="#29ABE2"/>
<path fill-rule="evenodd" clip-rule="evenodd" d="M9.69116 16.2247L10.0778 20.6336L20.0091 16.2247V11.8086L9.69116 16.2247Z" fill="#B3B3B3"/>
<path fill-rule="evenodd" clip-rule="evenodd" d="M31.0082 7.09473L20.009 11.8087V16.2247L30.629 11.5037L31.0082 7.09473Z" fill="#E6E6E6"/>
<path fill-rule="evenodd" clip-rule="evenodd" d="M20.0092 27.7606L19.975 27.7657L15.0498 26.443L14.7281 22.9263H10.2954L10.914 29.8545L19.9741 32.3631L20.0092 32.3548V27.7606Z" fill="#E6E6E6"/>
<path fill-rule="evenodd" clip-rule="evenodd" d="M20.009 16.2246V20.6335H25.4013L24.9112 26.3979L20.009 27.7643V32.3581L29.039 29.8495L30.2281 16.2246H20.009Z" fill="white"/>
<path fill-rule="evenodd" clip-rule="evenodd" d="M20.0091 16.2246H9.69116L10.0778 20.6335H20.0091V16.2246Z" fill="#E6E6E6"/>
<path fill-rule="evenodd" clip-rule="evenodd" d="M20.0091 11.5037V7.09473H19.9643H8.90723L9.29847 11.5037H20.0091Z" fill="#E6E6E6"/>
<path fill-rule="evenodd" clip-rule="evenodd" d="M20.009 7.09473V11.4484V11.5037H30.629L31.0082 7.09473H20.009Z" fill="white"/>
</svg>
