<svg width="100%" height="100%" viewBox="0 0 29 40" fill="none" xmlns="http://www.w3.org/2000/svg">
<path d="M14.1655 39.8989L2.62184 36.6943L0.0493164 7.84106H28.3163L25.7412 36.6898L14.1655 39.8989Z" fill="#264DE4"/>
<path d="M23.5363 34.8528L25.7369 10.2002H14.1826V37.446L23.5363 34.8528Z" fill="#2965F1"/>
<path d="M5.94691 20.9015L6.26403 24.4402H14.183V20.9015H5.94691ZM5.30957 13.739L5.63123 17.2777H14.183V13.739H5.30957ZM14.183 30.0919L14.1675 30.096L10.2265 29.0319L9.9745 26.2096H6.42215L6.91788 31.7659L14.1667 33.7781L14.183 33.7737V30.0919Z" fill="#EBEBEB"/>
<path d="M6.70166 0H10.9875V1.79235H8.49401V3.58471H10.9878V5.37695H6.70166V0ZM11.8448 0H16.1308V1.55856H13.6372V1.87025H16.1308V5.45496H11.8449V3.81828H14.3386V3.50659H11.8447L11.8448 0ZM16.9881 0H21.2741V1.55856H18.7804V1.87025H21.2741V5.45496H16.9881V3.81828H19.4817V3.50659H16.9882L16.9881 0Z" fill="black"/>
<path d="M22.3962 20.9015L23.035 13.739H14.1705V17.2777H19.1569L18.8349 20.9015H14.1705V24.4402H18.5281L18.1172 29.0297L14.1704 30.0949V33.7765L21.425 31.7659L21.4782 31.168L22.3099 21.8517L22.3962 20.9015Z" fill="white"/>
</svg>
