<svg width="100%" height="100%" viewBox="0 0 29 40" fill="none" xmlns="http://www.w3.org/2000/svg">
<path d="M28.3163 7.84106L25.7412 36.6898L14.1655 39.8989L2.62184 36.6943L0.0493164 7.84106H28.3163Z" fill="#E44D26"/>
<path d="M14.1826 37.446L23.5363 34.8528L25.7369 10.2002H14.1826V37.446Z" fill="#F16529"/>
<path d="M9.17694 17.2777H14.183V13.739H5.30957L5.39422 14.6884L6.26403 24.4402H14.183V20.9015H9.50037L9.17694 17.2777ZM9.9745 26.2096H6.42215L6.91788 31.7659L14.1667 33.7781L14.183 33.7737V30.0919L14.1675 30.096L10.2265 29.0319L9.9745 26.2096Z" fill="#EBEBEB"/>
<path d="M2.6792 0H4.47754V1.77673H6.12263V0H7.92108V5.38039H6.12274V3.57873H4.47765V5.38039H2.67931L2.6792 0ZM10.2858 1.78427H8.70291V0H13.6685V1.78427H12.0845V5.38039H10.2862V1.78427H10.2858ZM14.4565 0H16.3316L17.4851 1.89053L18.6374 0H20.5133V5.38039H18.7223V2.71357L17.4851 4.62659H17.454L16.216 2.71357V5.38039H14.4565V0ZM21.4083 0H23.2072V3.60199H25.7361V5.38039H21.4082L21.4083 0Z" fill="black"/>
<path d="M14.1705 24.4402H18.5281L18.1172 29.0297L14.1704 30.0949V33.7765L21.425 31.7659L21.4782 31.168L22.3099 21.8517L22.3962 20.9015H14.1705V24.4402ZM14.1705 17.2691V17.2777H22.7182L22.7891 16.4824L22.9505 14.6884L23.035 13.739H14.1705V17.2691Z" fill="white"/>
</svg>
