<svg width="100%" height="100%" viewBox="0 0 40 40" fill="none" xmlns="http://www.w3.org/2000/svg">
<path fill-rule="evenodd" clip-rule="evenodd" d="M5.55353 36.0015L2.34375 0H37.6137L34.4005 35.9958L19.9571 40L5.55353 36.0015Z" fill="#E44D26"/>
<path fill-rule="evenodd" clip-rule="evenodd" d="M19.9788 36.9396L31.6497 33.7039L34.3956 2.94385H19.9788V36.9396Z" fill="#F16529"/>
<path d="M14.136 16.2963H19.9788V20.7117H10.0979L8.90698 7.35938H19.9788V11.7749H13.7325L14.136 16.2963Z" fill="#EBEBEB"/>
<path d="M19.9594 27.7688L19.9788 27.7637V32.3576L19.9585 32.3632L10.9138 29.8523L10.2952 22.9195H14.7276L15.0419 26.441L19.9594 27.7688Z" fill="#EBEBEB"/>
<path d="M19.9634 7.35938H31.0241L30.6287 11.7749H19.9634V7.35938Z" fill="white"/>
<path d="M19.9634 20.7117V16.2963H30.227L30.1192 17.482L29.0153 29.8524L19.9634 32.3611V27.7674L24.888 26.4382L25.4005 20.7117H19.9634Z" fill="white"/>
</svg>
