<svg width="100%" height="100%" viewBox="0 0 40 40" fill="none" xmlns="http://www.w3.org/2000/svg">
<path d="M30.625 0H9.375C4.19733 0 0 4.19733 0 9.375V30.625C0 35.8027 4.19733 40 9.375 40H30.625C35.8027 40 40 35.8027 40 30.625V9.375C40 4.19733 35.8027 0 30.625 0Z" fill="url(#paint0_linear_115_166)"/>
<path d="M12.3807 10.7405C10.8204 13.0245 11.0148 15.9956 12.2035 18.4195L12.291 18.5922L12.3501 18.7016C12.361 18.7228 12.3735 18.7438 12.385 18.7644C12.4056 18.8028 12.4262 18.8397 12.444 18.8775L12.5578 19.0762L12.6226 19.1856L12.7546 19.3959L12.8137 19.4845C12.8728 19.5791 12.9395 19.673 13.0051 19.7656L13.0104 19.773C13.0207 19.7878 13.0323 19.8025 13.0401 19.8173C13.0967 19.897 13.1581 19.9756 13.2171 20.0536L13.2828 20.1386L13.4437 20.3402L13.5051 20.4152C13.5784 20.5034 13.6532 20.5906 13.7296 20.6762L13.7343 20.6809C13.7373 20.6847 13.7403 20.6869 13.7432 20.6906C13.8173 20.7742 13.8932 20.8559 13.9712 20.9358L14.0445 21.0108L14.2267 21.1928L14.301 21.2648C14.3829 21.3433 14.4662 21.4203 14.5506 21.4961L14.5979 21.5373L14.8245 21.7323L14.9182 21.8086L15.1073 21.9562L15.2084 22.0345L15.4973 22.2456C15.5046 22.2506 15.511 22.2559 15.5185 22.2609C15.5864 22.3083 15.6553 22.3541 15.7243 22.3998L15.8135 22.4603L16.136 22.6613L16.2253 22.7123L16.4675 22.8505C16.5117 22.8747 16.557 22.8978 16.6012 22.9208L16.7743 23.0094L16.8142 23.0289L16.8851 23.0637L17.1596 23.1931L17.2179 23.2227C17.3239 23.2697 17.4306 23.3148 17.5381 23.3581L17.616 23.3895L17.9181 23.5034L17.9559 23.517C18.0675 23.5564 18.1797 23.5939 18.2926 23.6294L18.3739 23.6541C18.492 23.6895 18.6028 23.7319 18.7215 23.7545C26.2668 25.1592 28.4592 19.1395 28.4592 19.1395C26.6184 21.582 23.3509 22.2258 20.2553 21.5091C20.1379 21.4795 20.0242 21.445 19.9096 21.4105L19.8234 21.3809C19.712 21.346 19.6011 21.3093 19.4909 21.2708L19.4451 21.2539C19.3468 21.2185 19.249 21.1815 19.1518 21.1431L19.0692 21.11C18.9627 21.0673 18.8572 21.0227 18.7525 20.9759L18.6893 20.9477L18.4223 20.8206L18.3456 20.7828C18.2762 20.7479 18.2072 20.7122 18.1387 20.6756L18.0009 20.6017C17.9175 20.5561 17.835 20.509 17.7534 20.4603L17.6698 20.413C17.5613 20.3477 17.4537 20.2808 17.3473 20.2122C17.3178 20.193 17.2893 20.1727 17.2601 20.1531L17.0306 19.9978L16.9568 19.9447L16.7398 19.7852L16.6434 19.7113L16.4476 19.5553L16.3603 19.4845L16.1165 19.2778C16.1072 19.2695 16.0974 19.2619 16.087 19.255C16.0003 19.1772 15.9149 19.098 15.8307 19.0175L15.7585 18.9467L15.5742 18.763L15.5023 18.6891C15.4255 18.6094 15.3502 18.5282 15.2764 18.4458C15.2728 18.4416 15.2685 18.4378 15.2651 18.4339C15.187 18.3469 15.1106 18.2581 15.0359 18.1681L14.9759 18.0955L14.8106 17.8878L14.75 17.8111L14.5595 17.5527C12.8407 15.1648 12.2264 11.8717 13.5967 9.16703L12.3807 10.7405ZM17.2243 8.81609C16.0962 10.47 16.1573 12.6833 17.0375 14.4323C17.1846 14.726 17.3514 15.0094 17.5365 15.2808C17.7056 15.5275 17.8931 15.8214 18.1175 16.0192C18.1987 16.1078 18.2837 16.1964 18.3706 16.2869C18.3925 16.3095 18.415 16.3311 18.4373 16.3539C18.5217 16.4375 18.6079 16.5192 18.696 16.5988C18.6996 16.6017 18.7029 16.6052 18.7067 16.6081C18.806 16.6964 18.9075 16.7821 19.0112 16.8652L19.0798 16.9194C19.1829 17.0006 19.2884 17.0789 19.3957 17.1545C19.3985 17.1569 19.4015 17.1592 19.4046 17.1614C19.4518 17.1947 19.5006 17.2263 19.5487 17.2581C19.5718 17.2736 19.5935 17.2898 19.6167 17.3042C19.6937 17.3547 19.7718 17.4034 19.8509 17.4505L19.884 17.47L20.0907 17.5881C20.115 17.602 20.1396 17.6141 20.1645 17.627L20.3121 17.7033C20.3196 17.7072 20.327 17.71 20.334 17.7136C20.4335 17.7637 20.5337 17.8111 20.6362 17.8569C20.6581 17.8666 20.6804 17.8755 20.7029 17.8848C20.785 17.9205 20.8677 17.9547 20.951 17.9873L21.0573 18.027C21.1328 18.055 21.2085 18.0819 21.2848 18.1077L21.3875 18.1409C21.4959 18.1755 21.6031 18.2186 21.7162 18.2378C27.5418 19.2208 28.8871 14.6523 28.8871 14.6523C27.6748 16.4303 25.3271 17.2792 22.8214 16.617C22.7106 16.5875 22.6006 16.555 22.4915 16.5195C22.4581 16.5092 22.4254 16.4983 22.3923 16.49C22.3149 16.4645 22.238 16.4375 22.1617 16.4091L22.0573 16.3695C21.9737 16.34 21.891 16.3031 21.8093 16.2677C21.7868 16.2578 21.7643 16.2491 21.7423 16.2388C21.6395 16.1938 21.5381 16.1458 21.4381 16.0948C21.3867 16.0692 21.3362 16.0423 21.2856 16.0156L21.1976 15.9697C21.1327 15.9339 21.0684 15.897 21.0048 15.8589L20.9587 15.8294C20.8801 15.7823 20.8023 15.7339 20.7254 15.6841C20.7017 15.6686 20.6787 15.6545 20.6551 15.6362L20.5039 15.5344C20.397 15.4587 20.2921 15.3805 20.189 15.2998L20.1181 15.2431C19.0215 14.3612 18.152 13.1563 17.7389 11.7897C17.3056 10.372 17.3992 8.78156 18.1523 7.49063L17.2243 8.81609ZM21.2971 7.37844C20.632 8.37547 20.5668 9.61359 21.0314 10.7147C21.5181 11.8833 22.5154 12.8003 23.6793 13.2348C23.7273 13.2531 23.7754 13.2692 23.827 13.2859L23.8909 13.3066C23.9593 13.3284 24.0276 13.3538 24.0982 13.3675C27.3151 14.0003 28.1874 11.6862 28.4196 11.3456C27.6553 12.4666 26.3709 12.7356 24.795 12.3461C24.6709 12.315 24.5335 12.2692 24.4109 12.2263C24.2567 12.1704 24.1056 12.1065 23.9582 12.0345C23.6778 11.897 23.4118 11.7316 23.1643 11.5409C21.751 10.4511 20.8748 8.3725 21.7951 6.67969M14.1929 28.5437L13.9751 29.3164L14.1929 28.5441V28.5437ZM20.5971 26.7747H19.5989C19.5706 26.7757 19.5434 26.7859 19.5213 26.8036C19.4993 26.8214 19.4836 26.8459 19.4767 26.8733L18.7678 30.1538C18.7608 30.1811 18.7451 30.2054 18.7232 30.2231C18.7012 30.2409 18.6741 30.251 18.6459 30.252H17.9392C17.2398 30.252 17.3207 29.7686 17.4665 29.1061L17.471 29.0861L17.5557 28.6342L17.5923 28.4481L17.915 26.8733C17.918 26.8613 17.9182 26.8487 17.9156 26.8366C17.9129 26.8245 17.9074 26.8131 17.8996 26.8035C17.8917 26.7939 17.8817 26.7862 17.8704 26.7812C17.8591 26.7761 17.8467 26.7738 17.8343 26.7744H16.8095C16.7812 26.7754 16.7541 26.7855 16.7321 26.8033C16.7102 26.8211 16.6946 26.8455 16.6878 26.873L16.226 29.0627C15.9721 30.2216 16.0395 31.3269 17.4193 31.3614L17.4592 31.3622H19.6246C19.6529 31.3612 19.6801 31.351 19.7021 31.3332C19.7241 31.3154 19.7397 31.291 19.7467 31.2636L20.6804 26.873C20.6923 26.8187 20.6559 26.7744 20.6007 26.7744L20.5971 26.7747ZM24.5804 30.2636C24.636 30.2636 24.669 30.3078 24.661 30.3622L24.5642 30.8362L24.5804 30.2636Z" fill="white"/>
<path d="M21.91 29.6538C21.9093 29.6017 21.9683 29.5125 22.0238 29.5125L21.8991 29.5105C21.84 30.0758 21.91 29.6538 21.91 29.6538ZM24.5808 30.2639C24.6364 30.2639 24.6694 30.3081 24.6614 30.3625L24.5486 30.9136L24.5808 30.2639ZM22.7235 31.4192H22.6768H22.7294H22.7235ZM8.04551 29.6655L8.20066 28.978L8.02348 29.7636L8.00269 29.8622L8.04582 29.665L8.04551 29.6655ZM9.90207 26.7638H8.80551C8.77713 26.7648 8.74984 26.7749 8.72767 26.7926C8.70549 26.8103 8.68961 26.8347 8.68238 26.8622L8.47441 27.7777C8.47096 27.7895 8.47041 27.802 8.4728 27.8141C8.4752 27.8263 8.48047 27.8376 8.48817 27.8473C8.49588 27.8569 8.50579 27.8646 8.51707 27.8696C8.52836 27.8746 8.54068 27.8768 8.55301 27.8761H9.65816C9.68642 27.875 9.71357 27.8649 9.73559 27.8471C9.7576 27.8294 9.7733 27.805 9.78035 27.7777L9.98129 26.86C9.99301 26.8061 9.95754 26.7617 9.9016 26.7617L9.90207 26.7638ZM6.47785 33.2208L7.38223 33.228C7.11519 33.228 6.67441 33.223 6.47754 33.2206L6.47785 33.2208Z" fill="white"/>
<path d="M9.58402 28.1917H8.47855C8.45018 28.1927 8.42288 28.2028 8.40071 28.2205C8.37853 28.2383 8.36265 28.2627 8.35542 28.2901L8.04527 29.6651L8.00214 29.8625L7.70683 31.2662C7.6923 31.3317 7.67449 31.3965 7.6537 31.4603C7.6537 31.4603 7.44699 32.0746 7.10027 32.0678L6.7562 32.0614C6.72797 32.0621 6.7007 32.0718 6.67838 32.0891C6.65606 32.1065 6.63986 32.1304 6.63214 32.1576L6.40324 33.1212C6.39965 33.133 6.39895 33.1455 6.40118 33.1576C6.40341 33.1697 6.40851 33.1811 6.41605 33.1908C6.4236 33.2006 6.43336 33.2083 6.44454 33.2135C6.45571 33.2187 6.46796 33.2211 6.48027 33.2206L7.38495 33.2279C8.25214 33.2279 8.70902 32.7473 9.00214 31.3651L9.66667 28.2936C9.67855 28.2396 9.64245 28.1953 9.58699 28.1953L9.58402 28.1917ZM25.285 31.3631C25.2295 31.3631 25.1964 31.3189 25.2053 31.2645L26.0367 27.3701L25.285 31.3631Z" fill="white"/>
<path d="M25.2172 31.314C25.2105 31.2868 25.2144 31.2202 25.2261 31.1662L25.6207 29.3174L25.2049 31.2646C25.193 31.319 25.2291 31.3632 25.2846 31.3632H25.3857C25.3302 31.3632 25.2238 31.341 25.2172 31.314ZM26.3751 31.341C26.3449 31.3529 26.2746 31.3632 26.2191 31.3632H26.3201C26.3482 31.362 26.3753 31.3518 26.3971 31.3339C26.4189 31.3161 26.4344 31.2917 26.4411 31.2643L26.4613 31.1657C26.4504 31.2199 26.4022 31.329 26.3727 31.341H26.3751ZM29.889 27.631L29.9347 27.8201C29.9476 27.8741 29.9124 27.918 29.8571 27.9183M26.7569 29.6996L26.7977 29.5035L26.9563 28.7607L26.7768 29.6018L26.7569 29.6993V29.6996ZM26.0502 27.3062L26.0157 27.4685L25.621 29.3174L26.0369 27.3702L26.0502 27.3065V27.3062Z" fill="white"/>
<path d="M29.9352 27.8199L29.8894 27.6309L29.8216 27.3355C29.7318 26.987 29.4683 26.7852 28.896 26.7852L26.2614 26.7835C26.2332 26.7845 26.206 26.7946 26.1841 26.8124C26.1622 26.8302 26.1466 26.8547 26.1399 26.8821L26.0991 27.0751L26.04 27.3665L25.2296 31.1626C25.2177 31.217 25.2139 31.2807 25.2207 31.3102C25.2275 31.3398 25.3338 31.3596 25.3891 31.3596H26.2219C26.2774 31.3596 26.3474 31.3495 26.3778 31.3374C26.4083 31.3252 26.4528 31.2193 26.4664 31.162L26.7825 29.5984L27.1207 28.0141C27.1276 27.9868 27.1433 27.9625 27.1652 27.9448C27.1871 27.9271 27.2142 27.9169 27.2424 27.9159L29.8628 27.9146C29.9182 27.9146 29.9533 27.8704 29.9405 27.8163L29.9352 27.8199ZM33.3089 26.109L33.1072 26.1098H32.2685C32.2378 26.1117 32.2078 26.1201 32.1806 26.1344C32.1534 26.1488 32.1296 26.1688 32.1107 26.193L30.256 28.9102C30.2247 28.956 30.1889 28.9493 30.1763 28.8955L30.0397 28.2968C30.0324 28.2694 30.0165 28.2451 29.9944 28.2274C29.9722 28.2097 29.9449 28.1996 29.9166 28.1985H28.7244C28.6688 28.1985 28.6358 28.242 28.6511 28.2954L29.1827 30.1673C29.198 30.2204 29.1989 30.308 29.1857 30.3621L28.9494 31.268C28.9453 31.2796 28.9442 31.2921 28.9462 31.3042C28.9482 31.3163 28.9532 31.3278 28.9608 31.3374C28.9684 31.3471 28.9782 31.3548 28.9895 31.3597C29.0008 31.3646 29.0131 31.3667 29.0253 31.3657H30.2066C30.2351 31.3646 30.2626 31.3545 30.2851 31.3371C30.3077 31.3196 30.3243 31.2955 30.3325 31.2682L30.5688 30.3624C30.5872 30.2987 30.6163 30.2384 30.6544 30.1841L33.6686 26.1873C33.7021 26.1429 33.6841 26.107 33.6285 26.1074L33.3125 26.1096L33.3089 26.109ZM23.8355 28.453C23.8285 28.5121 23.773 28.5565 23.7174 28.5565H22.2052C22.153 28.5565 22.1264 28.521 22.1344 28.4766L22.1355 28.4687L22.1424 28.443C22.29 28.0591 22.581 27.8071 23.1335 27.8071C23.7558 27.8071 23.8772 28.1113 23.835 28.453H23.8355ZM23.3919 26.7082C21.4516 26.7082 20.9918 27.886 20.7339 29.0748C20.4758 30.2865 20.4982 31.4198 22.506 31.4198H22.8242L23.0694 31.4188L24.3471 31.4112C24.3751 31.4099 24.402 31.3996 24.4236 31.3817C24.4453 31.3639 24.4606 31.3395 24.4672 31.3123L24.6613 30.3637C24.6725 30.3093 24.6363 30.2649 24.5807 30.2649H22.7755C22.0578 30.2649 21.8444 30.0741 21.9228 29.5134H24.8085C24.8317 29.5131 24.8543 29.5059 24.8733 29.4926C24.8924 29.4793 24.907 29.4607 24.9153 29.439C24.9186 29.4309 24.921 29.4225 24.9224 29.4138C25.3507 27.7984 25.2278 26.7095 23.3925 26.7095L23.3919 26.7082ZM14.2203 28.4466L14.1932 28.5432L13.9753 29.3157L13.7574 30.0877C13.7483 30.1149 13.7312 30.1388 13.7084 30.1561C13.6855 30.1734 13.6579 30.1833 13.6293 30.1846H12.4755C11.6007 30.1846 11.3877 29.5004 11.6007 28.4912C11.8133 27.459 12.2313 26.8171 13.0922 26.7523C14.2688 26.6637 14.5039 27.4912 14.2203 28.4463V28.4466ZM15.0113 30.1255C15.0113 30.1255 15.5547 28.8054 15.6788 28.0426C15.8471 27.0215 15.3363 25.541 13.3619 25.541C11.3986 25.541 10.5463 26.9545 10.2213 28.4945C9.89628 30.042 10.3222 31.3995 12.2738 31.3888L15.2525 31.3779C15.2811 31.3764 15.3085 31.3663 15.3311 31.3487C15.3537 31.3312 15.3703 31.3071 15.3788 31.2798L15.6297 30.3235C15.6337 30.3119 15.6348 30.2996 15.6329 30.2875C15.631 30.2754 15.6262 30.2639 15.6188 30.2541C15.6114 30.2443 15.6016 30.2365 15.5903 30.2315C15.579 30.2264 15.5667 30.2243 15.5544 30.2254L15.0739 30.2224C15.0268 30.2221 15 30.1918 15.0053 30.1516C15.0065 30.1439 15.0085 30.1364 15.0113 30.1291V30.1255Z" fill="white"/>
<path d="M24.729 29.242C24.729 29.2595 24.7221 29.2763 24.7096 29.2887C24.6972 29.3012 24.6804 29.3081 24.6629 29.3081C24.6453 29.3081 24.6285 29.3012 24.6161 29.2887C24.6037 29.2763 24.5967 29.2595 24.5967 29.242C24.5967 29.2244 24.6037 29.2076 24.6161 29.1952C24.6285 29.1828 24.6453 29.1758 24.6629 29.1758C24.6804 29.1758 24.6972 29.1828 24.7096 29.1952C24.7221 29.2076 24.729 29.2244 24.729 29.242Z" fill="white"/>
<defs>
<linearGradient id="paint0_linear_115_166" x1="0" y1="0" x2="40" y2="40" gradientUnits="userSpaceOnUse">
<stop stop-color="#FF5C00"/>
<stop offset="1" stop-color="#FF0F00"/>
</linearGradient>
</defs>
</svg>
