<svg width="100%" height="100%" viewBox="0 0 40 40" fill="none" xmlns="http://www.w3.org/2000/svg">
<path d="M30.625 0H9.375C4.19733 0 0 4.19733 0 9.375V30.625C0 35.8027 4.19733 40 9.375 40H30.625C35.8027 40 40 35.8027 40 30.625V9.375C40 4.19733 35.8027 0 30.625 0Z" fill="#F0DB4F"/>
<path d="M10.5177 33.4269L13.5787 31.5744C14.1693 32.6214 14.7065 33.5074 15.9951 33.5074C17.2302 33.5074 18.009 33.0242 18.009 31.1449V18.3639H21.768V31.198C21.768 35.0913 19.4859 36.8635 16.1562 36.8635C13.1491 36.8635 11.4037 35.3061 10.5176 33.4266M23.8098 33.0241L26.8704 31.2521C27.6762 32.5678 28.7234 33.5344 30.5759 33.5344C32.1335 33.5344 33.1266 32.7556 33.1266 31.6816C33.1266 30.3928 32.1063 29.9363 30.3879 29.1847L29.4484 28.7817C26.7363 27.6274 24.9373 26.1774 24.9373 23.1164C24.9373 20.2971 27.0854 18.1489 30.4418 18.1489C32.8315 18.1489 34.5499 18.9814 35.7849 21.1563L32.8582 23.0358C32.2137 21.8813 31.5159 21.4249 30.4418 21.4249C29.3409 21.4249 28.6427 22.123 28.6427 23.0358C28.6427 24.1635 29.3409 24.62 30.9518 25.3183L31.8915 25.721C35.0866 27.0905 36.8857 28.4864 36.8857 31.6278C36.8857 35.0113 34.2276 36.8638 30.6565 36.8638C27.166 36.8638 24.9105 35.1991 23.8098 33.0241Z" fill="#323330"/>
</svg>
