<svg width="100%" height="100%" viewBox="0 0 40 40" fill="none" xmlns="http://www.w3.org/2000/svg">
<path d="M30.625 0H9.375C4.19733 0 0 4.19733 0 9.375V30.625C0 35.8027 4.19733 40 9.375 40H30.625C35.8027 40 40 35.8027 40 30.625V9.375C40 4.19733 35.8027 0 30.625 0Z" fill="url(#paint0_linear_115_127)"/>
<path d="M1.79479 20.1685L9.65479 23.3535V25.583L0.350098 21.2719V19.9638L1.79479 20.1685ZM9.65479 17.5524L1.80619 20.7827L0.350254 20.9421V19.6225L9.65463 15.3229L9.65479 17.5524ZM37.7142 20.6235L29.6267 17.4727V15.3L39.3407 19.5997V20.9307L37.7142 20.6235ZM29.6267 23.399L37.737 20.1799L39.3407 19.941V21.2605L29.6267 25.5716V23.399Z" fill="white"/>
<path fill-rule="evenodd" clip-rule="evenodd" d="M27.5118 9.5467C27.4668 10.2601 27.1454 11.0051 27.2349 11.6987C27.7963 12.6915 29.0319 12.8498 30.0513 12.918C30.7576 13.0442 30.7487 12.5765 30.7013 12.0512L30.7099 9.53186C29.6438 9.53576 28.5774 9.52139 27.5118 9.5467ZM19.1054 11.542C17.3698 11.8367 15.6104 12.6661 14.1665 13.6645C13.0043 14.569 15.1641 15.4456 15.9477 15.5922C17.5243 15.6114 18.9226 14.548 19.9582 13.4442C20.2963 12.9801 20.7187 12.2697 20.2938 11.7317C19.9694 11.4505 19.4977 11.5186 19.1054 11.542ZM22.7987 14.0664C21.3716 14.3383 20.0138 14.9264 18.8124 15.7453C17.9316 16.0219 17.2057 16.9889 18.2971 17.4734C19.4432 18.3867 20.7715 18.1629 21.8269 17.5464C22.7935 16.9719 23.8376 16.263 24.2848 15.1814C24.7071 13.9965 23.6174 13.9526 22.7987 14.0664ZM26.8469 18.6575C26.5812 19.7675 25.4634 20.2722 24.8687 21.1517C24.3824 21.7933 24.6076 22.549 25.1612 23.054C25.4307 23.613 25.9032 23.9253 26.4099 23.4398C27.7149 22.5526 28.0759 20.8245 28.0216 19.3272C28.118 18.7087 27.4085 19.2678 26.8469 18.6575ZM21.8809 20.7423C20.1479 21.0389 18.4146 21.8833 16.9701 22.8801C15.8487 23.7834 17.9607 24.6269 18.7507 24.7606C20.3565 24.763 21.7888 23.7281 22.8041 22.5528C23.1573 22.0861 23.5852 21.1797 22.886 20.8086C22.5734 20.6761 22.2104 20.715 21.8809 20.7423Z" fill="#B956A6"/>
<path fill-rule="evenodd" clip-rule="evenodd" d="M14.1667 13.6644C12.8339 14.1977 11.5483 14.8452 10.2786 15.5234C10.0427 16.4007 10.2319 17.4871 10.1708 18.4491C10.1661 22.4048 10.1683 26.3605 10.1677 30.3162H13.1083C13.702 29.7571 14.4458 29.3479 15.0908 28.8402C17.5742 27.0591 20.0569 25.2712 22.537 23.4951C22.7195 23.5771 22.6027 22.4215 22.2024 23.2241C21.2538 24.1168 19.9947 24.851 18.662 24.7793C17.9058 24.5305 16.6867 24.1085 16.6791 23.1818C17.2114 22.5551 15.6969 23.5099 15.2825 23.6466C13.9353 24.2935 12.62 25.0159 11.27 25.6507C11.5944 25.3023 12.2013 24.9774 12.6316 24.6318C15.7055 22.4252 18.7786 20.2101 21.8599 18.0052C22.4525 17.5891 23.025 17.1352 23.6359 16.7463C23.6917 16.9618 23.7964 15.7162 23.342 16.483C22.4158 17.4012 21.1664 18.0846 19.8488 18.094C19.1077 17.869 17.5292 17.331 17.8806 16.3741C18.052 16.0384 16.2888 17.0899 17.0678 16.4969C17.897 15.891 18.7328 15.2959 19.5684 14.6962C19.9905 14.6644 19.9006 13.0968 19.3272 14.108C18.3639 14.9544 17.0983 15.7288 15.7716 15.5452C15.0263 15.3307 14.132 14.9152 13.8611 14.1359C13.7714 13.9487 14.363 13.6569 14.1667 13.6644ZM19.6884 14.6321C19.8224 14.5549 19.6145 14.8435 19.6884 14.6321Z" fill="#FCCC44"/>
<path fill-rule="evenodd" clip-rule="evenodd" d="M28.1092 12.6173C27.6931 14.6041 27.2383 16.6837 26.8472 18.6574C27.9709 20.0737 28.0798 17.7627 28.2764 17.1093C28.594 15.7435 28.9703 14.7123 29.0101 13.2982C29.0945 12.8155 28.5273 12.5234 28.1092 12.6173ZM29.3984 14.1752C29.4497 14.2135 29.3633 14.3788 29.3984 14.1752ZM28.0875 18.6305C28.1415 18.7469 28.1415 18.514 28.0875 18.6305Z" fill="#62777F"/>
<path fill-rule="evenodd" clip-rule="evenodd" d="M28.8464 12.8422C29.197 14.8112 28.0356 17.2034 27.6558 19.06C28.5183 18.4253 29.1847 15.5456 29.355 14.4184C29.3989 14.2895 29.4529 13.9651 29.4647 13.9534C29.5189 13.6798 30.024 13.2162 30.0517 12.918C30.3458 12.7105 28.6064 12.6772 28.8464 12.8422ZM28.1312 18.6305C28.077 18.7469 28.077 18.5139 28.1312 18.6305Z" fill="#4E5E67"/>
<path fill-rule="evenodd" clip-rule="evenodd" d="M14.1958 13.6973C13.7095 14.1842 13.892 14.0652 14.2539 13.6604L14.1958 13.6973ZM19.4552 13.9384C18.8919 14.7848 16.8606 15.4926 16.6048 15.5474C17.8267 15.3185 18.9656 14.5584 19.767 13.6681C19.6397 13.7248 19.5641 13.8581 19.4552 13.9384ZM13.8617 14.2132C14.1653 14.9432 15.2692 15.4282 15.8056 15.5413C15.0733 15.3054 14.2113 14.887 13.8617 14.2132ZM19.6445 14.6354C19.4912 14.8163 18.9453 15.087 18.6575 15.3526C18.0402 15.8079 17.4016 16.231 16.7912 16.6977C17.1798 16.681 18.3186 15.8304 17.7348 16.6935C18.2295 17.5449 19.3066 18.137 20.2886 18.0829C21.5855 17.8793 22.7814 17.1623 23.6411 16.1651C22.5975 17.1977 21.2178 18.1696 19.6911 18.0357C18.9522 17.8651 16.9331 16.8221 18.2837 16.091C18.76 15.6993 19.5811 15.4942 19.6741 14.8057C19.6545 14.7198 19.8147 14.6359 19.6445 14.6354ZM15.9478 15.5921C16.4392 15.6563 16.4392 15.5281 15.9478 15.5921ZM23.6045 16.7679C21.6547 18.1263 19.7331 19.5379 17.8002 20.9207C15.6095 22.4885 13.4283 24.0621 11.2383 25.6287C12.0617 25.351 12.8867 24.8088 13.7047 24.4343C14.8312 23.8384 16.0191 23.3676 17.0731 22.6437C19.1572 21.4168 21.3612 20.2479 22.9642 18.3709C23.3141 17.9606 23.6648 17.3001 23.6805 16.8559C23.63 16.8701 23.6683 16.6782 23.6045 16.7679ZM16.9702 22.8799C16.6194 23.2763 16.4769 23.5596 16.8409 23.0556C16.8345 23.114 17.1364 22.7426 16.9702 22.8799ZM22.307 23.0696C21.383 24.044 20.0162 24.7468 18.7339 24.7941C20.2164 24.8049 21.5539 23.9249 22.5583 22.8868C22.4923 22.8071 22.3588 23.0724 22.307 23.0696ZM22.5894 23.3759C19.4848 25.6359 16.2731 27.9801 13.1581 30.232C13.6487 30.3859 14.7173 30.4581 15.205 29.8298C16.2425 29.1138 17.4089 28.5874 18.4498 27.8618C19.9572 26.8837 21.5711 25.8146 22.4272 24.1707C22.468 23.9502 22.7709 23.5537 22.5894 23.3759ZM16.6811 23.5193C16.8252 24.1274 18.6261 24.8254 18.4308 24.6918C17.7667 24.459 17.108 24.0962 16.6811 23.5193Z" fill="#DC9624"/>
<defs>
<linearGradient id="paint0_linear_115_127" x1="0" y1="40" x2="40" y2="0" gradientUnits="userSpaceOnUse">
<stop stop-color="#DB7093"/>
<stop offset="1" stop-color="#F3B661"/>
</linearGradient>
</defs>
</svg>
