<svg width="40" height="40" viewBox="0 0 40 40" fill="none" xmlns="http://www.w3.org/2000/svg">
<g clip-path="url(#clip0_195_473)">
<path d="M6.08497 5.6061C13.988 -2.05 26.6247 -1.84419 34.2808 6.10004C35.1452 4.94751 35.8861 3.67149 36.4212 2.35431C38.9321 10.0104 40.4551 16.4317 39.8788 21.4122C39.5907 25.6107 37.9442 29.6446 35.2275 32.8552C28.1477 41.2522 15.5522 42.3224 7.15517 35.2426L6.99453 35.0997L6.98599 35.0941C6.95969 35.0758 6.93375 35.0567 6.9082 35.0368C6.83156 34.9772 6.76196 34.9123 6.69941 34.843L6.67687 34.8173L6.41426 34.584C6.15814 34.3645 5.90202 34.145 5.67482 33.8965L5.59102 33.8019C-2.06507 25.8989 -1.8181 13.2622 6.08497 5.6061ZM9.04862 32.4024C8.3077 31.8262 7.2375 31.9085 6.66123 32.6494C6.15452 33.3009 6.15701 34.207 6.66872 34.808L6.67687 34.8173L6.99453 35.0997L7.0257 35.1209C7.74518 35.594 8.71319 35.4962 9.26534 34.8276L9.29559 34.7898C9.87185 34.0489 9.74837 32.9787 9.04862 32.4024ZM36.2154 4.4124C34.1573 8.73439 29.0533 12.0273 24.6489 13.0564C20.4916 14.0443 16.8694 13.221 13.0413 14.7029C4.31501 18.037 4.47966 28.4097 9.25443 30.756L9.54256 30.9206C9.54256 30.9206 12.9915 30.2349 16.4021 29.3293L16.6943 29.2511C18.0565 28.884 19.3967 28.4838 20.4916 28.0804C26.1719 25.9812 32.4285 20.7948 34.4866 14.7852C33.4164 21.0418 28.0242 27.0926 22.632 29.8504C19.7507 31.3322 17.528 31.6615 12.7943 33.308C12.2181 33.5138 11.7653 33.7196 11.7653 33.7196C11.8231 33.7117 11.8808 33.7039 11.9384 33.6963L12.0535 33.6814L12.1679 33.667C13.2133 33.5374 14.1527 33.4726 14.1527 33.4726C20.8621 33.1434 31.3995 35.3661 36.2977 28.8214C41.3195 22.1531 38.5205 11.3687 36.2154 4.4124Z" fill="#6DB33F"/>
<path d="M9.04865 32.4026C9.7484 32.9789 9.87188 34.0491 9.29562 34.79C8.71935 35.5309 7.64915 35.6133 6.90823 35.037C6.16732 34.4607 6.085 33.3905 6.66126 32.6496C7.23753 31.9087 8.30773 31.8264 9.04865 32.4026ZM36.2154 4.4126C38.5205 11.3689 41.3195 22.1533 36.2978 28.8216C31.3995 35.3663 20.8621 33.1435 14.1527 33.4728C14.1527 33.4728 13.2133 33.5376 12.1679 33.6672L12.0535 33.6816C11.9579 33.6938 11.8616 33.7065 11.7653 33.7198C11.7653 33.7198 12.2181 33.514 12.7944 33.3082C17.528 31.6617 19.7507 31.3324 22.632 29.8506C28.0242 27.0928 33.4164 21.042 34.4866 14.7854C32.4286 20.795 26.172 25.9814 20.4916 28.0806C16.5813 29.5213 9.54259 30.9208 9.54259 30.9208L9.25446 30.7562C4.47969 28.4099 4.31504 18.0372 13.0413 14.7031C16.8694 13.2212 20.4916 14.0445 24.649 13.0566C29.0533 12.0275 34.1574 8.73459 36.2154 4.4126Z" fill="white"/>
</g>
<defs>
<clipPath id="clip0_195_473">
<rect width="40" height="40" fill="white"/>
</clipPath>
</defs>
</svg>
